<?xml version="1.0" encoding="UTF-8" standalone="no"?>
<!-- Created with Inkscape (http://www.inkscape.org/) -->

<svg
   width="107.36304mm"
   height="50.138203mm"
   viewBox="0 0 107.36304 50.138203"
   version="1.1"
   id="svg1"
   inkscape:version="1.3.2 (091e20e, 2023-11-25)"
   sodipodi:docname="chapter_2_example_0.svg"
   inkscape:export-filename="chapter_2_example_0.pdf"
   inkscape:export-xdpi="96"
   inkscape:export-ydpi="96"
   xmlns:inkscape="http://www.inkscape.org/namespaces/inkscape"
   xmlns:sodipodi="http://sodipodi.sourceforge.net/DTD/sodipodi-0.dtd"
   xmlns="http://www.w3.org/2000/svg"
   xmlns:svg="http://www.w3.org/2000/svg">
  <sodipodi:namedview
     id="namedview1"
     pagecolor="#ffffff"
     bordercolor="#000000"
     borderopacity="0.25"
     inkscape:showpageshadow="2"
     inkscape:pageopacity="0.0"
     inkscape:pagecheckerboard="0"
     inkscape:deskcolor="#d1d1d1"
     inkscape:document-units="mm"
     inkscape:zoom="1.9827809"
     inkscape:cx="174.50239"
     inkscape:cy="89.268562"
     inkscape:window-width="1920"
     inkscape:window-height="1136"
     inkscape:window-x="0"
     inkscape:window-y="27"
     inkscape:window-maximized="1"
     inkscape:current-layer="layer1" />
  <defs
     id="defs1" />
  <g
     inkscape:label="Layer 1"
     inkscape:groupmode="layer"
     id="layer1"
     transform="translate(-32.985181,-97.889194)">
    <path
       id="path39"
       d="m 47.402263,123.37454 c 0.514117,-0.20148 0.767503,-0.78146 0.56603,-1.29557 -0.201474,-0.5141 -0.781459,-0.76749 -1.29557,-0.56601 -0.514108,0.20147 -0.767493,0.78146 -0.566017,1.29557 0.201474,0.5141 0.781455,0.76749 1.295557,0.56601"
       style="fill:#000000;fill-opacity:1;fill-rule:evenodd;stroke:none;stroke-width:0.33324" />
    <path
       id="path39-62"
       d="m 34.349944,125.30353 c 0.514117,-0.20148 0.767503,-0.78146 0.56603,-1.29557 -0.201474,-0.5141 -0.781459,-0.76749 -1.29557,-0.56601 -0.514108,0.20147 -0.767493,0.78146 -0.566017,1.29557 0.201474,0.5141 0.781455,0.76749 1.295557,0.56601"
       style="fill:#ff0000;fill-opacity:1;fill-rule:evenodd;stroke:none;stroke-width:0.33324" />
    <path
       id="path39-62-7"
       d="m 36.215234,123.59158 c 0.514117,-0.20148 0.767503,-0.78146 0.56603,-1.29557 -0.201474,-0.5141 -0.781459,-0.76749 -1.29557,-0.56601 -0.514108,0.20147 -0.767493,0.78146 -0.566017,1.29557 0.201474,0.5141 0.781455,0.76749 1.295557,0.56601"
       style="fill:#ff0000;fill-opacity:1;fill-rule:evenodd;stroke:none;stroke-width:0.33324" />
    <path
       id="path39-6"
       d="m 87.823763,123.37454 c 0.514117,-0.20148 0.767503,-0.78146 0.56603,-1.29557 -0.201474,-0.5141 -0.781459,-0.76749 -1.29557,-0.56601 -0.514108,0.20147 -0.767493,0.78146 -0.566017,1.29557 0.201474,0.5141 0.781455,0.76749 1.295557,0.56601"
       style="fill:#000000;fill-opacity:1;fill-rule:evenodd;stroke:none;stroke-width:0.33324" />
    <path
       id="path39-5"
       d="m 128.58501,123.37454 c 0.51411,-0.20148 0.7675,-0.78146 0.56603,-1.29557 -0.20148,-0.5141 -0.78146,-0.76749 -1.29557,-0.56601 -0.51411,0.20147 -0.7675,0.78146 -0.56602,1.29557 0.20147,0.5141 0.78146,0.76749 1.29556,0.56601"
       style="fill:#000000;fill-opacity:1;fill-rule:evenodd;stroke:none;stroke-width:0.33324" />
    <path
       style="fill:none;fill-rule:evenodd;stroke:#000000;stroke-width:0.265;stroke-dasharray:none;stroke-opacity:1;paint-order:stroke fill markers"
       d="m 47.011023,122.51767 81.127447,-0.0732"
       id="path1" />
    <path
       style="fill:none;fill-rule:evenodd;stroke:#ff0000;stroke-width:0.264999;stroke-dasharray:none;stroke-opacity:1;paint-order:stroke fill markers"
       d="m 35.258512,122.85623 31.633154,-24.197969 20.100433,21.516689 52.610071,-0.057 -31.37644,26.86602 -20.648812,-22.16892 -54.115776,-0.19866"
       id="path2" />
    <path
       id="path39-62-6"
       d="m 87.823763,125.99024 c 0.514117,-0.20148 0.767503,-0.78146 0.56603,-1.29557 -0.201474,-0.5141 -0.781459,-0.76749 -1.29557,-0.56601 -0.514108,0.20147 -0.767493,0.78146 -0.566017,1.29557 0.201474,0.5141 0.781455,0.76749 1.295557,0.56601"
       style="fill:#ff0000;fill-opacity:1;fill-rule:evenodd;stroke:none;stroke-width:0.33324" />
    <path
       id="path39-62-61"
       d="m 108.49451,147.95819 c 0.51412,-0.20148 0.76751,-0.78146 0.56603,-1.29557 -0.20147,-0.5141 -0.78145,-0.76749 -1.29557,-0.56601 -0.5141,0.20147 -0.76749,0.78146 -0.56601,1.29557 0.20147,0.5141 0.78145,0.76749 1.29555,0.56601"
       style="fill:#ff0000;fill-opacity:1;fill-rule:evenodd;stroke:none;stroke-width:0.33324" />
    <path
       id="path39-62-2"
       d="m 139.71298,121.37274 c 0.51412,-0.20148 0.76751,-0.78146 0.56603,-1.29557 -0.20147,-0.5141 -0.78146,-0.76749 -1.29557,-0.56601 -0.51411,0.20147 -0.76749,0.78146 -0.56601,1.29557 0.20147,0.5141 0.78145,0.76749 1.29555,0.56601"
       style="fill:#ff0000;fill-opacity:1;fill-rule:evenodd;stroke:none;stroke-width:0.33324" />
    <path
       id="path39-62-75"
       d="m 67.303594,99.819981 c 0.51412,-0.20148 0.76751,-0.78146 0.56603,-1.29557 -0.20147,-0.5141 -0.78146,-0.76749 -1.29557,-0.56601 -0.5141,0.20147 -0.76749,0.78146 -0.56601,1.29557 0.20147,0.5141 0.78145,0.767489 1.29555,0.56601"
       style="fill:#ff0000;fill-opacity:1;fill-rule:evenodd;stroke:none;stroke-width:0.33324" />
    <path
       id="path39-62-75-8"
       d="m 87.823952,120.92681 c 0.51412,-0.20148 0.76751,-0.78146 0.56603,-1.29557 -0.20147,-0.5141 -0.78146,-0.76749 -1.29557,-0.56601 -0.5141,0.20147 -0.76749,0.78146 -0.56601,1.29557 0.20147,0.5141 0.78145,0.76749 1.29555,0.56601"
       style="fill:#ff0000;fill-opacity:1;fill-rule:evenodd;stroke:none;stroke-width:0.33324" />
  </g>
</svg>
