<?xml version="1.0" encoding="UTF-8" standalone="no"?>
<!-- Created with Inkscape (http://www.inkscape.org/) -->

<svg
   width="83.773933mm"
   height="34.50013mm"
   viewBox="0 0 83.773933 34.50013"
   version="1.1"
   id="svg1"
   inkscape:version="1.3.2 (091e20e, 2023-11-25)"
   sodipodi:docname="chapter_4_example.svg"
   inkscape:export-filename="chapter_4_example.pdf"
   inkscape:export-xdpi="96"
   inkscape:export-ydpi="96"
   xmlns:inkscape="http://www.inkscape.org/namespaces/inkscape"
   xmlns:sodipodi="http://sodipodi.sourceforge.net/DTD/sodipodi-0.dtd"
   xmlns="http://www.w3.org/2000/svg"
   xmlns:svg="http://www.w3.org/2000/svg">
  <sodipodi:namedview
     id="namedview1"
     pagecolor="#ffffff"
     bordercolor="#000000"
     borderopacity="0.25"
     inkscape:showpageshadow="2"
     inkscape:pageopacity="0.0"
     inkscape:pagecheckerboard="0"
     inkscape:deskcolor="#d1d1d1"
     inkscape:document-units="mm"
     inkscape:zoom="3.2046027"
     inkscape:cx="163.20276"
     inkscape:cy="82.381508"
     inkscape:window-width="1920"
     inkscape:window-height="1136"
     inkscape:window-x="0"
     inkscape:window-y="27"
     inkscape:window-maximized="1"
     inkscape:current-layer="layer1"
     showgrid="false">
    <inkscape:grid
       id="grid10"
       units="mm"
       originx="-60.955653"
       originy="-20.348459"
       spacingx="0.99999998"
       spacingy="1"
       empcolor="#0099e5"
       empopacity="0.30196078"
       color="#0099e5"
       opacity="0.14901961"
       empspacing="5"
       dotted="false"
       gridanglex="30"
       gridanglez="30"
       visible="false" />
  </sodipodi:namedview>
  <defs
     id="defs1">
    <rect
       x="100.03898"
       y="-31.874844"
       width="232.71761"
       height="34.596027"
       id="rect10" />
    <linearGradient
       id="linearGradient2"
       inkscape:swatch="gradient">
      <stop
         style="stop-color:#000000;stop-opacity:1;"
         offset="0"
         id="stop2" />
      <stop
         style="stop-color:#000000;stop-opacity:0;"
         offset="1"
         id="stop3" />
    </linearGradient>
  </defs>
  <g
     inkscape:label="Layer 1"
     inkscape:groupmode="layer"
     id="layer1"
     transform="translate(-60.955653,-20.34846)">
    <text
       xml:space="preserve"
       style="font-size:3.175px;fill:none;fill-rule:evenodd;stroke:#ff0000;stroke-width:0.2;stroke-miterlimit:4;stroke-dasharray:none;stroke-opacity:1;paint-order:stroke fill markers"
       x="69.071953"
       y="44.824089"
       id="text7"><tspan
         sodipodi:role="line"
         style="stroke-width:0.2"
         x="69.071953"
         y="44.824089"
         id="tspan9" /></text>
    <text
       xml:space="preserve"
       transform="scale(0.26458333)"
       id="text10"
       style="white-space:pre;shape-inside:url(#rect10);display:inline;fill:none;fill-rule:evenodd;stroke:#ff0000;stroke-width:0.755906;stroke-miterlimit:4;stroke-dasharray:none;stroke-opacity:1;paint-order:stroke fill markers" />
    <path
       id="path9"
       d="m 133.84344,53.315556 c 8.6921,-3.406387 12.97696,-13.214106 9.57057,-21.906184 -3.4064,-8.692076 -13.21409,-12.976968 -21.90619,-9.570577 -8.69205,3.406385 -12.97694,13.214104 -9.57056,21.906181 3.40638,8.69208 13.21412,12.976964 21.90618,9.57058"
       style="fill:none;stroke:#000000;stroke-width:0.293507;stroke-linecap:butt;stroke-linejoin:round;stroke-miterlimit:10;stroke-dasharray:none;stroke-opacity:1" />
    <path
       id="path111-0"
       d="m 124.52414,30.424035 c -0.004,-0.552316 -0.45637,-0.996055 -1.00869,-0.991236 -0.55229,0.0047 -0.99604,0.456379 -0.99123,1.008691 0.004,0.552318 0.45638,0.996054 1.00869,0.991235 0.55231,-0.0047 0.99605,-0.456377 0.99123,-1.00869"
       style="fill:#ff0000;fill-opacity:1;fill-rule:evenodd;stroke:none;stroke-width:0.333334" />
    <path
       id="path111-0-4"
       d="m 82.979017,45.191035 c -0.0047,-0.552311 -0.45638,-0.996056 -1.008689,-0.991235 -0.552307,0.0047 -0.996054,0.456375 -0.991235,1.008688 0.0047,0.552311 0.45638,0.996055 1.008688,0.991235 0.552309,-0.0047 0.996056,-0.456377 0.991236,-1.008688"
       style="fill:#ff0000;fill-opacity:1;fill-rule:evenodd;stroke:none;stroke-width:0.333334" />
    <path
       id="path111-0-6"
       d="m 136.69272,43.186189 c -0.005,-0.58453 -0.45689,-1.054387 -1.0092,-1.049567 -0.5523,0.0047 -0.99583,0.482491 -0.99072,1.06702 0.005,0.58453 0.45688,1.054388 1.00921,1.049568 0.55229,-0.0047 0.99581,-0.482491 0.99071,-1.067021"
       style="fill:#ff0000;fill-opacity:1;fill-rule:evenodd;stroke:none;stroke-width:0.342918" />
    <path
       id="path10"
       d="M 84.177401,53.358255 C 92.869495,49.95186 97.154374,40.144143 93.74799,31.452076 90.341599,22.75999 80.533891,18.475106 71.841795,21.8815 c -8.692081,3.406389 -12.976963,13.214101 -9.57057,21.906185 3.406383,8.692069 13.214094,12.97696 21.906176,9.57057"
       style="fill:none;stroke:#000000;stroke-width:0.293507;stroke-linecap:butt;stroke-linejoin:round;stroke-miterlimit:10;stroke-dasharray:none;stroke-opacity:1" />
    <path
       id="path22"
       d="M 79.150717,20.853677 126.4994,20.714914 v 0"
       style="fill:none;stroke:#000000;stroke-width:0.283355;stroke-linecap:butt;stroke-linejoin:round;stroke-miterlimit:10;stroke-dasharray:none;stroke-opacity:1" />
    <path
       id="path25"
       d="m 125.38311,54.341725 -48.340378,0.15353 v 0"
       style="fill:none;stroke:#000000;stroke-width:0.280295;stroke-linecap:butt;stroke-linejoin:round;stroke-miterlimit:10;stroke-dasharray:none;stroke-opacity:1" />
    <path
       id="path38"
       d="m 128.04044,38.507806 c 0.51411,-0.201477 0.76749,-0.781463 0.56603,-1.295571 -0.20148,-0.514108 -0.78147,-0.767493 -1.29557,-0.566015 -0.5141,0.201474 -0.7675,0.781457 -0.56601,1.295561 0.20146,0.514105 0.78145,0.767501 1.29555,0.566025"
       style="fill:#000080;fill-opacity:1;fill-rule:evenodd;stroke:none;stroke-width:0.333238" />
    <path
       id="path39"
       d="m 78.374933,38.551214 c 0.514117,-0.201478 0.767503,-0.781463 0.56603,-1.295567 -0.201474,-0.514108 -0.781459,-0.767497 -1.29557,-0.566017 -0.514108,0.201475 -0.767493,0.781459 -0.566017,1.295569 0.201474,0.514104 0.781455,0.767492 1.295557,0.566015"
       style="fill:#000080;fill-opacity:1;fill-rule:evenodd;stroke:none;stroke-width:0.33324" />
    <path
       id="path111"
       d="m 79.584233,27.411669 c -0.0047,-0.55231 -0.456379,-0.996056 -1.00869,-0.991235 -0.552305,0.0047 -0.996055,0.456376 -0.991235,1.008688 0.0047,0.552312 0.456381,0.996056 1.00869,0.991235 0.552307,-0.0047 0.996055,-0.456376 0.991235,-1.008688"
       style="fill:#ff0000;fill-opacity:1;fill-rule:evenodd;stroke:none;stroke-width:0.333334" />
    <path
       style="fill:#000000;fill-rule:evenodd;stroke:#000000;stroke-width:0.264583;stroke-opacity:1"
       d="M 78.126735,37.676778 127.9923,37.662328"
       id="path1" />
    <path
       style="fill:none;fill-opacity:1;fill-rule:evenodd;stroke:#ff0000;stroke-width:0.465;stroke-miterlimit:4;stroke-dasharray:none;stroke-opacity:1;paint-order:stroke fill markers"
       d="M 78.636966,27.286766 123.58198,30.304084 82.004869,45.12787 135.70798,43.097064"
       id="path2" />
    <path
       style="fill:none;fill-rule:evenodd;stroke:#ff0000;stroke-width:0.2;stroke-miterlimit:4;stroke-dasharray:none;stroke-opacity:1;paint-order:stroke fill markers"
       d="M 61.879255,32.725523 78.372813,27.422044"
       id="path5" />
    <path
       style="fill:none;fill-rule:evenodd;stroke:#ff0000;stroke-width:0.2;stroke-miterlimit:4;stroke-dasharray:none;stroke-opacity:1;paint-order:stroke fill markers"
       d="m 131.92299,54.037127 3.61689,-10.55911 7.92408,-11.589278"
       id="path6" />
    <path
       style="fill:none;fill-rule:evenodd;stroke:#ff0000;stroke-width:0.2;stroke-miterlimit:4;stroke-dasharray:none;stroke-opacity:1;paint-order:stroke fill markers"
       d="m 123.68905,30.433824 18.22236,-1.512077"
       id="path7" />
    <path
       style="fill:none;fill-rule:evenodd;stroke:#000000;stroke-width:0.2;stroke-miterlimit:4;stroke-dasharray:none;stroke-opacity:1;paint-order:stroke fill markers"
       d="M 77.633051,37.431649 61.602577,40.931984"
       id="path11" />
  </g>
</svg>
