<?xml version="1.0" encoding="UTF-8" standalone="no"?>
<!-- Created with Inkscape (http://www.inkscape.org/) -->

<svg
   width="80.484436mm"
   height="34.109318mm"
   viewBox="0 0 80.484435 34.109318"
   version="1.1"
   id="svg1"
   inkscape:version="1.3.2 (091e20e, 2023-11-25)"
   sodipodi:docname="chapter_3_placements_example.svg"
   inkscape:export-filename="chapter_3_placements_example.pdf"
   inkscape:export-xdpi="96"
   inkscape:export-ydpi="96"
   xmlns:inkscape="http://www.inkscape.org/namespaces/inkscape"
   xmlns:sodipodi="http://sodipodi.sourceforge.net/DTD/sodipodi-0.dtd"
   xmlns="http://www.w3.org/2000/svg"
   xmlns:svg="http://www.w3.org/2000/svg">
  <sodipodi:namedview
     id="namedview1"
     pagecolor="#ffffff"
     bordercolor="#000000"
     borderopacity="0.25"
     inkscape:showpageshadow="2"
     inkscape:pageopacity="0.0"
     inkscape:pagecheckerboard="0"
     inkscape:deskcolor="#d1d1d1"
     inkscape:document-units="mm"
     inkscape:zoom="2.6044095"
     inkscape:cx="103.28637"
     inkscape:cy="102.13448"
     inkscape:window-width="1920"
     inkscape:window-height="1136"
     inkscape:window-x="0"
     inkscape:window-y="27"
     inkscape:window-maximized="1"
     inkscape:current-layer="layer1" />
  <defs
     id="defs1" />
  <g
     inkscape:label="Layer 1"
     inkscape:groupmode="layer"
     id="layer1"
     transform="translate(-56.2474, -96.0081)">
    <path
       id="path10-9"
       d="M 85.020226,128.80111 C 93.712318,125.39471 97.9972,115.587 94.590818,106.89493 91.18442,98.202842 81.376716,93.917962 72.68462,97.324352 c -8.692081,3.406388 -12.976963,13.214098 -9.57057,21.906188 3.406383,8.69207 13.214094,12.97696 21.906176,9.57057"
       style="fill:none;stroke:#000000;stroke-width:0.293507;stroke-linecap:butt;stroke-linejoin:round;stroke-miterlimit:10;stroke-dasharray:none;stroke-opacity:1" />
    <path
       id="path39-6"
       d="m 79.217758,113.99406 c 0.514117,-0.20148 0.767503,-0.78146 0.56603,-1.29557 -0.201474,-0.5141 -0.781459,-0.76749 -1.29557,-0.56601 -0.514108,0.20147 -0.767493,0.78146 -0.566017,1.29557 0.201474,0.5141 0.781455,0.76749 1.295557,0.56601"
       style="fill:#000000;fill-opacity:1;fill-rule:evenodd;stroke:none;stroke-width:0.33324" />
    <path
       id="path39-6-0-9"
       d="m 84.283993,104.26982 c 0.51412,-0.20148 0.76751,-0.78146 0.56603,-1.29557 -0.20147,-0.5141 -0.78145,-0.76749 -1.29557,-0.56601 -0.5141,0.20147 -0.76749,0.78146 -0.56601,1.29557 0.20147,0.5141 0.78145,0.76749 1.29555,0.56601"
       style="fill:#ff0000;fill-opacity:1;fill-rule:evenodd;stroke:none;stroke-width:0.33324" />
    <path
       id="path39-6-0-9-5"
       d="m 57.612161,124.14437 c 0.51412,-0.20148 0.76751,-0.78146 0.56603,-1.29557 -0.20147,-0.5141 -0.78145,-0.76749 -1.29557,-0.56601 -0.5141,0.20147 -0.76749,0.78146 -0.56601,1.29557 0.20147,0.5141 0.78145,0.76749 1.29555,0.56601"
       style="fill:#ff0000;fill-opacity:1;fill-rule:evenodd;stroke:none;stroke-width:0.33324" />
    <path
       id="path39-6-0-9-5-0"
       d="m 83.548085,125.13466 c 0.51412,-0.20148 0.76751,-0.78146 0.56603,-1.29557 -0.20147,-0.5141 -0.78145,-0.76749 -1.29557,-0.56601 -0.5141,0.20147 -0.76749,0.78146 -0.56601,1.29557 0.20147,0.5141 0.78145,0.76749 1.29555,0.56601"
       style="fill:#ff0000;fill-opacity:1;fill-rule:evenodd;stroke:none;stroke-width:0.265;stroke-dasharray:none" />
    <path
       id="path39-6-0-9-5-7"
       d="m 124.29045,121.93745 c 0.51412,-0.20148 0.76751,-0.78146 0.56603,-1.29557 -0.20147,-0.5141 -0.78145,-0.76749 -1.29557,-0.56601 -0.5141,0.20147 -0.76749,0.78146 -0.56601,1.29557 0.20147,0.5141 0.78145,0.76749 1.29555,0.56601"
       style="fill:#ff0000;fill-opacity:1;fill-rule:evenodd;stroke:none;stroke-width:0.33324" />
    <path
       id="path39-6-0-7-8"
       d="m 114.65102,107.00054 c 0.51412,-0.20148 0.7675,-0.78146 0.56603,-1.29557 -0.20147,-0.5141 -0.78146,-0.76749 -1.29557,-0.56601 -0.51411,0.20147 -0.76749,0.78146 -0.56602,1.29557 0.20148,0.5141 0.78146,0.76749 1.29556,0.56601"
       style="fill:#ff0000;fill-opacity:1;fill-rule:evenodd;stroke:none;stroke-width:0.33324" />
    <path
       id="path10-8"
       d="m 125.84498,128.80111 c 8.69209,-3.4064 12.97697,-13.21411 9.57058,-21.90618 -3.40639,-8.692088 -13.21409,-12.976968 -21.90619,-9.570578 -8.69208,3.406388 -12.97696,13.214098 -9.57057,21.906188 3.40638,8.69207 13.21409,12.97696 21.90618,9.57057"
       style="fill:none;stroke:#000000;stroke-width:0.293507;stroke-linecap:butt;stroke-linejoin:round;stroke-miterlimit:10;stroke-dasharray:none;stroke-opacity:1" />
    <path
       id="path39-5"
       d="m 120.04251,113.99406 c 0.51411,-0.20148 0.7675,-0.78146 0.56603,-1.29557 -0.20148,-0.5141 -0.78146,-0.76749 -1.29557,-0.56601 -0.51411,0.20147 -0.7675,0.78146 -0.56602,1.29557 0.20147,0.5141 0.78146,0.76749 1.29556,0.56601"
       style="fill:#000000;fill-opacity:1;fill-rule:evenodd;stroke:none;stroke-width:0.33324" />
    <path
       style="fill:none;fill-rule:evenodd;stroke:#000000;stroke-width:0.264999;stroke-dasharray:0.264999, 0.264999;stroke-dashoffset:0;stroke-opacity:1;paint-order:stroke fill markers"
       d="m 65.202551,102.81056 13.16556,9.84005"
       id="path4" />
    <path
       style="fill:none;fill-rule:evenodd;stroke:#000000;stroke-width:0.264999;stroke-dasharray:0.264999, 0.264999;stroke-dashoffset:0;stroke-opacity:1;paint-order:stroke fill markers"
       d="m 114.07357,106.01587 -15.104516,6.48169"
       id="path4-7" />
    <path
       style="fill:none;fill-rule:evenodd;stroke:#000000;stroke-width:0.264999;stroke-dasharray:0.264999, 0.264999;stroke-dashoffset:0;stroke-opacity:1;paint-order:stroke fill markers"
       d="m 94.851591,112.81491 -11.77845,11.46413"
       id="path4-7-6" />
    <g
       inkscape:label=""
       transform="translate(68.367705,102.4236)"
       id="g6">
      <g
         fill="#000000"
         fill-opacity="1"
         id="g2"
         transform="matrix(0.423333,0,0,0.423333,-39.0274,-32.7861)">
        <g
           id="use1"
           transform="translate(91.925003,81.962997)">
          <path
             d="M 1.40625,-2.265625 C 1.734375,-2.125 2.03125,-2.125 2.265625,-2.125 c 0.25,0 0.8125,0 0.8125,-0.3125 0,-0.234375 -0.359375,-0.265625 -0.734375,-0.265625 -0.203125,0 -0.5625,0.015625 -0.921875,0.1875 C 1.1875,-2.625 1.015625,-2.828125 1.015625,-3.09375 c 0,-0.609375 0.984375,-0.96875 1.875,-0.96875 0.15625,0 0.515625,0 0.921875,0.28125 0.109375,0.078125 0.125,0.109375 0.1875,0.109375 0.140625,0 0.28125,-0.140625 0.28125,-0.28125 0,-0.1875 -0.609375,-0.5625 -1.296875,-0.5625 -1.140625,0 -2.21875,0.671875 -2.21875,1.421875 0,0.4375 0.359375,0.6875 0.40625,0.71875 -0.59375,0.328125 -0.90625,0.875 -0.90625,1.34375 0,0.640625 0.5625,1.25 1.625,1.25 1.3125,0 1.875,-0.875 1.875,-1.03125 0,-0.0625 -0.0625,-0.09375 -0.109375,-0.09375 -0.0625,0 -0.09375,0.03125 -0.109375,0.0625 -0.140625,0.234375 -0.375,0.609375 -1.578125,0.609375 -0.609375,0 -1.453125,-0.15625 -1.453125,-0.859375 0,-0.34375 0.28125,-0.875 0.890625,-1.171875 z m 0.328125,-0.125 c 0.234375,-0.078125 0.4375,-0.09375 0.609375,-0.09375 0.25,0 0.28125,0.015625 0.46875,0.0625 -0.15625,0.0625 -0.171875,0.078125 -0.546875,0.078125 -0.21875,0 -0.34375,0 -0.53125,-0.046875 z m 0,0"
             id="path6" />
        </g>
      </g>
    </g>
    <g
       inkscape:label=""
       transform="translate(77.741157,109.16884)"
       id="g44">
      <g
         fill="#000000"
         fill-opacity="1"
         id="g43"
         transform="matrix(0.423333,0,0,0.423333,-39.0406,-32.8324)">
        <g
           id="g42"
           transform="translate(91.925003,81.962997)">
          <path
             d="M 3.484375,-0.5625 C 3.59375,-0.15625 3.953125,0.109375 4.375,0.109375 4.71875,0.109375 4.953125,-0.125 5.109375,-0.4375 5.28125,-0.796875 5.40625,-1.40625 5.40625,-1.421875 c 0,-0.109375 -0.078125,-0.109375 -0.109375,-0.109375 -0.109375,0 -0.109375,0.046875 -0.140625,0.1875 -0.140625,0.5625 -0.328125,1.234375 -0.75,1.234375 -0.203125,0 -0.3125,-0.125 -0.3125,-0.453125 0,-0.21875 0.125,-0.6875 0.203125,-1.046875 L 4.578125,-2.6875 C 4.609375,-2.828125 4.703125,-3.203125 4.75,-3.359375 4.796875,-3.59375 4.890625,-3.96875 4.890625,-4.03125 c 0,-0.171875 -0.140625,-0.265625 -0.28125,-0.265625 -0.046875,0 -0.3125,0.015625 -0.390625,0.34375 -0.1875,0.734375 -0.625,2.484375 -0.75,3 -0.015625,0.046875 -0.40625,0.84375 -1.140625,0.84375 -0.515625,0 -0.609375,-0.453125 -0.609375,-0.8125 0,-0.5625 0.28125,-1.34375 0.53125,-2.03125 0.125,-0.3125 0.171875,-0.453125 0.171875,-0.640625 0,-0.4375 -0.3125,-0.8125 -0.8125,-0.8125 -0.953125,0 -1.3125,1.453125 -1.3125,1.53125 0,0.109375 0.09375,0.109375 0.109375,0.109375 0.109375,0 0.109375,-0.03125 0.15625,-0.1875 0.25,-0.859375 0.640625,-1.234375 1.015625,-1.234375 0.09375,0 0.25,0.015625 0.25,0.328125 0,0.234375 -0.109375,0.53125 -0.171875,0.671875 -0.375,1 -0.578125,1.609375 -0.578125,2.09375 0,0.953125 0.6875,1.203125 1.21875,1.203125 0.65625,0 1.015625,-0.453125 1.1875,-0.671875 z m 0,0"
             id="path41" />
        </g>
      </g>
    </g>
    <g
       inkscape:label=""
       transform="translate(118.83496,109.16884)"
       id="g47">
      <g
         fill="#000000"
         fill-opacity="1"
         id="g46"
         transform="matrix(0.423333,0,0,0.423333,-39.0406,-32.8324)">
        <g
           id="g45"
           transform="translate(91.925003,81.962997)">
          <path
             d="m 4.671875,-3.703125 c 0,-0.546875 -0.265625,-0.703125 -0.4375,-0.703125 -0.25,0 -0.5,0.265625 -0.5,0.484375 0,0.125 0.046875,0.1875 0.15625,0.296875 0.21875,0.203125 0.34375,0.453125 0.34375,0.8125 0,0.421875 -0.609375,2.703125 -1.765625,2.703125 -0.515625,0 -0.75,-0.34375 -0.75,-0.875 0,-0.546875 0.28125,-1.28125 0.578125,-2.109375 0.078125,-0.171875 0.125,-0.3125 0.125,-0.5 0,-0.4375 -0.3125,-0.8125 -0.8125,-0.8125 -0.9375,0 -1.3125,1.453125 -1.3125,1.53125 0,0.109375 0.09375,0.109375 0.109375,0.109375 0.109375,0 0.109375,-0.03125 0.15625,-0.1875 0.296875,-1 0.71875,-1.234375 1.015625,-1.234375 0.078125,0 0.25,0 0.25,0.3125 0,0.25 -0.109375,0.53125 -0.171875,0.703125 -0.4375,1.15625 -0.5625,1.609375 -0.5625,2.046875 0,1.078125 0.875,1.234375 1.328125,1.234375 1.671875,0 2.25,-3.296875 2.25,-3.8125 z m 0,0"
             id="path44" />
        </g>
      </g>
    </g>
    <path
       style="fill:#000000;fill-opacity:1;fill-rule:evenodd;stroke:#000000;stroke-width:0.264999;stroke-dasharray:none;paint-order:stroke fill markers"
       d="M 78.803388,112.66367 H 119.41951"
       id="path1" />
    <path
       style="fill:#000000;fill-opacity:1;fill-rule:evenodd;stroke:#000000;stroke-width:0.264999;stroke-dasharray:none;paint-order:stroke fill markers"
       d="M 78.510123,96.149661 H 119.12625"
       id="path1-8" />
    <path
       style="fill:#000000;fill-opacity:1;fill-rule:evenodd;stroke:#000000;stroke-width:0.264999;stroke-dasharray:none;paint-order:stroke fill markers"
       d="M 78.380494,129.95027 H 118.99662"
       id="path1-1" />
    <path
       style="fill:none;fill-opacity:1;fill-rule:evenodd;stroke:#ff0000;stroke-width:0.264999;stroke-dasharray:none;stroke-opacity:1;paint-order:stroke fill markers"
       d="M 84.036682,103.35617 63.067429,118.84035"
       id="path5" />
    <path
       style="fill:none;fill-opacity:1;fill-rule:evenodd;stroke:#ff0000;stroke-width:0.175595;stroke-dasharray:0.175595, 0.175595;stroke-dashoffset:0;stroke-opacity:1;paint-order:stroke fill markers"
       d="m 62.824971,118.95414 -5.722448,4.22558"
       id="path5-0" />
    <path
       style="fill:none;fill-opacity:1;fill-rule:evenodd;stroke:#ff0000;stroke-width:0.265;stroke-dasharray:none;stroke-dashoffset:0;stroke-opacity:1;paint-order:stroke fill markers"
       d="m 84.230264,103.30899 9.151423,0.6937"
       id="path7" />
    <path
       style="fill:none;fill-opacity:1;fill-rule:evenodd;stroke:#ff0000;stroke-width:0.265;stroke-dasharray:none;stroke-dashoffset:0;stroke-opacity:1;paint-order:stroke fill markers"
       d="m 105.09308,104.97848 10.03403,0.76062"
       id="path7-2" />
    <path
       style="fill:none;fill-opacity:1;fill-rule:evenodd;stroke:#ff0000;stroke-width:0.265;stroke-dasharray:0.265,0.265;stroke-dashoffset:0;stroke-opacity:1;paint-order:stroke fill markers"
       d="m 93.058779,103.88849 12.276211,0.93057"
       id="path7-2-9" />
    <path
       style="fill:none;fill-opacity:1;fill-rule:evenodd;stroke:#ff0000;stroke-width:0.265;stroke-dasharray:none;stroke-dashoffset:0;stroke-opacity:1;paint-order:stroke fill markers"
       d="m 114.33898,106.0165 -11.72222,6.85965"
       id="path8" />
    <path
       style="fill:none;fill-opacity:1;fill-rule:evenodd;stroke:#ff0000;stroke-width:0.265;stroke-dasharray:none;stroke-dashoffset:0;stroke-opacity:1;paint-order:stroke fill markers"
       d="m 95.307494,117.32635 -12.5708,7.35623"
       id="path8-8" />
    <path
       style="fill:none;fill-opacity:1;fill-rule:evenodd;stroke:#ff0000;stroke-width:0.265;stroke-dasharray:0.265,0.265;stroke-dashoffset:0;stroke-opacity:1;paint-order:stroke fill markers"
       d="M 102.75985,112.88441 95.21078,117.302"
       id="path8-8-6" />
    <path
       style="fill:none;fill-opacity:1;fill-rule:evenodd;stroke:#ff0000;stroke-width:0.265;stroke-dasharray:none;stroke-dashoffset:0;stroke-opacity:1;paint-order:stroke fill markers"
       d="m 83.294015,124.37664 8.949028,-0.70801"
       id="path9" />
    <path
       style="fill:none;fill-opacity:1;fill-rule:evenodd;stroke:#ff0000;stroke-width:0.265;stroke-dasharray:none;stroke-dashoffset:0;stroke-opacity:1;paint-order:stroke fill markers"
       d="m 105.36502,122.45686 18.67151,-1.47723"
       id="path9-1" />
    <path
       style="fill:none;fill-opacity:1;fill-rule:evenodd;stroke:#ff0000;stroke-width:0.265;stroke-dasharray:0.265,0.265;stroke-dashoffset:0;stroke-opacity:1;paint-order:stroke fill markers"
       d="m 92.07627,123.60981 13.85372,-1.09605"
       id="path9-1-9" />
    <g
       inkscape:label=""
       transform="translate(75.544638,103.32777)"
       id="g16">
      <g
         fill="#000000"
         fill-opacity="1"
         id="g4"
         transform="matrix(0.352778,0,0,0.352778,-32.3189,-27.3603)">
        <g
           id="use3"
           transform="translate(91.925003,81.962997)">
          <path
             d="M 0.453125,1.21875 C 0.375,1.5625 0.34375,1.625 -0.09375,1.625 c -0.109375,0 -0.21875,0 -0.21875,0.1875 0,0.078125 0.046875,0.125 0.125,0.125 0.265625,0 0.5625,-0.03125 0.828125,-0.03125 0.34375,0 0.671875,0.03125 1,0.03125 0.046875,0 0.171875,0 0.171875,-0.203125 C 1.8125,1.625 1.71875,1.625 1.578125,1.625 c -0.5,0 -0.5,-0.0625 -0.5,-0.15625 0,-0.125 0.421875,-1.75 0.484375,-2 0.125,0.296875 0.40625,0.640625 0.921875,0.640625 1.15625,0 2.40625,-1.453125 2.40625,-2.921875 0,-0.9375 -0.578125,-1.59375 -1.328125,-1.59375 -0.5,0 -0.984375,0.359375 -1.3125,0.75 -0.09375,-0.546875 -0.53125,-0.75 -0.890625,-0.75 -0.46875,0 -0.65625,0.390625 -0.734375,0.5625 C 0.4375,-3.5 0.3125,-2.90625 0.3125,-2.875 c 0,0.109375 0.09375,0.109375 0.109375,0.109375 0.109375,0 0.109375,-0.015625 0.171875,-0.234375 0.171875,-0.703125 0.375,-1.1875 0.734375,-1.1875 0.171875,0 0.3125,0.078125 0.3125,0.453125 0,0.234375 -0.03125,0.34375 -0.078125,0.515625 z m 1.75,-4.328125 C 2.265625,-3.375 2.546875,-3.65625 2.71875,-3.8125 c 0.359375,-0.296875 0.640625,-0.375 0.8125,-0.375 0.390625,0 0.640625,0.34375 0.640625,0.9375 0,0.59375 -0.328125,1.734375 -0.515625,2.109375 -0.34375,0.703125 -0.8125,1.03125 -1.1875,1.03125 C 1.8125,-0.109375 1.6875,-0.9375 1.6875,-1 c 0,-0.015625 0,-0.03125 0.03125,-0.15625 z m 0,0"
             id="path13" />
        </g>
      </g>
      <g
         fill="#000000"
         fill-opacity="1"
         id="g5"
         transform="matrix(0.352778,0,0,0.352778,-32.3189,-27.3603)">
        <g
           id="use4"
           transform="translate(96.938004,83.457001)">
          <path
             d="M 2.953125,-1.125 C 2.90625,-0.984375 2.84375,-0.71875 2.84375,-0.71875 2.703125,-0.5 2.421875,-0.125 2,-0.125 c -0.484375,0 -0.484375,-0.453125 -0.484375,-0.578125 0,-0.40625 0.1875,-0.90625 0.390625,-1.421875 C 1.953125,-2.265625 2,-2.359375 2,-2.46875 2,-2.84375 1.6875,-3.078125 1.34375,-3.078125 0.640625,-3.078125 0.328125,-2.125 0.328125,-2 c 0,0.078125 0.09375,0.078125 0.125,0.078125 0.09375,0 0.09375,-0.03125 0.125,-0.109375 0.15625,-0.5625 0.46875,-0.84375 0.734375,-0.84375 0.125,0 0.171875,0.078125 0.171875,0.234375 0,0.171875 -0.046875,0.3125 -0.125,0.46875 -0.375,0.96875 -0.375,1.171875 -0.375,1.359375 0,0.109375 0,0.4375 0.265625,0.65625 0.203125,0.171875 0.46875,0.21875 0.71875,0.21875 0.4375,0 0.671875,-0.234375 0.90625,-0.453125 C 3.03125,0.0625 3.484375,0.0625 3.578125,0.0625 3.8125,0.0625 4,-0.0625 4.125,-0.296875 4.28125,-0.578125 4.375,-0.96875 4.375,-1 c 0,-0.09375 -0.09375,-0.09375 -0.109375,-0.09375 -0.109375,0 -0.109375,0.03125 -0.15625,0.21875 -0.09375,0.328125 -0.21875,0.75 -0.515625,0.75 -0.171875,0 -0.234375,-0.15625 -0.234375,-0.34375 0,-0.109375 0.0625,-0.375 0.109375,-0.546875 0.046875,-0.1875 0.125,-0.46875 0.15625,-0.625 l 0.15625,-0.625 C 3.828125,-2.4375 3.90625,-2.75 3.90625,-2.78125 3.90625,-2.921875 3.796875,-3 3.671875,-3 c -0.25,0 -0.3125,0.203125 -0.359375,0.421875 z m 0,0"
             id="path14" />
        </g>
      </g>
      <g
         fill="#000000"
         fill-opacity="1"
         id="g15"
         transform="matrix(0.352778,0,0,0.352778,-32.3189,-27.3603)">
        <g
           id="use5"
           transform="translate(101.648,84.453003)">
          <path
             d="M 1.984375,-3.171875 C 1.984375,-3.3125 1.96875,-3.3125 1.796875,-3.3125 1.453125,-3 0.890625,-3 0.796875,-3 H 0.71875 v 0.21875 h 0.078125 c 0.109375,0 0.4375,-0.015625 0.734375,-0.140625 v 2.5 c 0,0.140625 0,0.203125 -0.53125,0.203125 H 0.75 V 0 c 0.265625,-0.015625 0.71875,-0.015625 1,-0.015625 0.296875,0 0.734375,0 1.015625,0.015625 v -0.21875 h -0.25 c -0.53125,0 -0.53125,-0.0625 -0.53125,-0.203125 z m 0,0"
             id="path15" />
        </g>
      </g>
    </g>
    <g
       inkscape:label=""
       transform="translate(87.728749,121.08492)"
       id="g23">
      <g
         fill="#000000"
         fill-opacity="1"
         id="g18"
         transform="matrix(0.352778,0,0,0.352778,-32.3189,-27.3603)">
        <g
           id="g17"
           transform="translate(91.925003,81.962997)">
          <path
             d="M 0.453125,1.21875 C 0.375,1.5625 0.34375,1.625 -0.09375,1.625 c -0.109375,0 -0.21875,0 -0.21875,0.1875 0,0.078125 0.046875,0.125 0.125,0.125 0.265625,0 0.5625,-0.03125 0.828125,-0.03125 0.34375,0 0.671875,0.03125 1,0.03125 0.046875,0 0.171875,0 0.171875,-0.203125 C 1.8125,1.625 1.71875,1.625 1.578125,1.625 c -0.5,0 -0.5,-0.0625 -0.5,-0.15625 0,-0.125 0.421875,-1.75 0.484375,-2 0.125,0.296875 0.40625,0.640625 0.921875,0.640625 1.15625,0 2.40625,-1.453125 2.40625,-2.921875 0,-0.9375 -0.578125,-1.59375 -1.328125,-1.59375 -0.5,0 -0.984375,0.359375 -1.3125,0.75 -0.09375,-0.546875 -0.53125,-0.75 -0.890625,-0.75 -0.46875,0 -0.65625,0.390625 -0.734375,0.5625 C 0.4375,-3.5 0.3125,-2.90625 0.3125,-2.875 c 0,0.109375 0.09375,0.109375 0.109375,0.109375 0.109375,0 0.109375,-0.015625 0.171875,-0.234375 0.171875,-0.703125 0.375,-1.1875 0.734375,-1.1875 0.171875,0 0.3125,0.078125 0.3125,0.453125 0,0.234375 -0.03125,0.34375 -0.078125,0.515625 z m 1.75,-4.328125 C 2.265625,-3.375 2.546875,-3.65625 2.71875,-3.8125 c 0.359375,-0.296875 0.640625,-0.375 0.8125,-0.375 0.390625,0 0.640625,0.34375 0.640625,0.9375 0,0.59375 -0.328125,1.734375 -0.515625,2.109375 -0.34375,0.703125 -0.8125,1.03125 -1.1875,1.03125 C 1.8125,-0.109375 1.6875,-0.9375 1.6875,-1 c 0,-0.015625 0,-0.03125 0.03125,-0.15625 z m 0,0"
             id="path16" />
        </g>
      </g>
      <g
         fill="#000000"
         fill-opacity="1"
         id="g20"
         transform="matrix(0.352778,0,0,0.352778,-32.3189,-27.3603)">
        <g
           id="g19"
           transform="translate(96.938004,83.457001)">
          <path
             d="M 2.953125,-1.125 C 2.90625,-0.984375 2.84375,-0.71875 2.84375,-0.71875 2.703125,-0.5 2.421875,-0.125 2,-0.125 c -0.484375,0 -0.484375,-0.453125 -0.484375,-0.578125 0,-0.40625 0.1875,-0.90625 0.390625,-1.421875 C 1.953125,-2.265625 2,-2.359375 2,-2.46875 2,-2.84375 1.6875,-3.078125 1.34375,-3.078125 0.640625,-3.078125 0.328125,-2.125 0.328125,-2 c 0,0.078125 0.09375,0.078125 0.125,0.078125 0.09375,0 0.09375,-0.03125 0.125,-0.109375 0.15625,-0.5625 0.46875,-0.84375 0.734375,-0.84375 0.125,0 0.171875,0.078125 0.171875,0.234375 0,0.171875 -0.046875,0.3125 -0.125,0.46875 -0.375,0.96875 -0.375,1.171875 -0.375,1.359375 0,0.109375 0,0.4375 0.265625,0.65625 0.203125,0.171875 0.46875,0.21875 0.71875,0.21875 0.4375,0 0.671875,-0.234375 0.90625,-0.453125 C 3.03125,0.0625 3.484375,0.0625 3.578125,0.0625 3.8125,0.0625 4,-0.0625 4.125,-0.296875 4.28125,-0.578125 4.375,-0.96875 4.375,-1 c 0,-0.09375 -0.09375,-0.09375 -0.109375,-0.09375 -0.109375,0 -0.109375,0.03125 -0.15625,0.21875 -0.09375,0.328125 -0.21875,0.75 -0.515625,0.75 -0.171875,0 -0.234375,-0.15625 -0.234375,-0.34375 0,-0.109375 0.0625,-0.375 0.109375,-0.546875 0.046875,-0.1875 0.125,-0.46875 0.15625,-0.625 l 0.15625,-0.625 C 3.828125,-2.4375 3.90625,-2.75 3.90625,-2.78125 3.90625,-2.921875 3.796875,-3 3.671875,-3 c -0.25,0 -0.3125,0.203125 -0.359375,0.421875 z m 0,0"
             id="path18" />
        </g>
      </g>
      <g
         fill="#000000"
         fill-opacity="1"
         id="g22"
         transform="matrix(0.352778,0,0,0.352778,-32.3189,-27.3603)">
        <g
           id="g21"
           transform="translate(101.648,84.453003)">
          <path
             d="M 2.9375,-0.96875 H 2.71875 c 0,0.09375 -0.0625,0.40625 -0.140625,0.453125 -0.03125,0.03125 -0.453125,0.03125 -0.53125,0.03125 H 1.078125 C 1.40625,-0.71875 1.765625,-1 2.0625,-1.203125 c 0.453125,-0.3125 0.875,-0.59375 0.875,-1.125 0,-0.640625 -0.609375,-0.984375 -1.3125,-0.984375 -0.671875,0 -1.171875,0.375 -1.171875,0.875 0,0.25 0.21875,0.296875 0.296875,0.296875 0.125,0 0.28125,-0.09375 0.28125,-0.296875 0,-0.171875 -0.125,-0.28125 -0.28125,-0.28125 0.140625,-0.234375 0.4375,-0.375 0.765625,-0.375 0.484375,0 0.890625,0.28125 0.890625,0.765625 0,0.421875 -0.296875,0.75 -0.671875,1.0625 l -1.21875,1.03125 C 0.46875,-0.1875 0.453125,-0.1875 0.453125,-0.15625 V 0 h 2.3125 z m 0,0"
             id="path20" />
        </g>
      </g>
    </g>
    <g
       inkscape:label=""
       transform="translate(114.86166,118.14058)"
       id="g30">
      <g
         fill="#000000"
         fill-opacity="1"
         id="g25"
         transform="matrix(0.352778,0,0,0.352778,-32.3189,-27.3603)">
        <g
           id="g24"
           transform="translate(91.925003,81.962997)">
          <path
             d="M 0.453125,1.21875 C 0.375,1.5625 0.34375,1.625 -0.09375,1.625 c -0.109375,0 -0.21875,0 -0.21875,0.1875 0,0.078125 0.046875,0.125 0.125,0.125 0.265625,0 0.5625,-0.03125 0.828125,-0.03125 0.34375,0 0.671875,0.03125 1,0.03125 0.046875,0 0.171875,0 0.171875,-0.203125 C 1.8125,1.625 1.71875,1.625 1.578125,1.625 c -0.5,0 -0.5,-0.0625 -0.5,-0.15625 0,-0.125 0.421875,-1.75 0.484375,-2 0.125,0.296875 0.40625,0.640625 0.921875,0.640625 1.15625,0 2.40625,-1.453125 2.40625,-2.921875 0,-0.9375 -0.578125,-1.59375 -1.328125,-1.59375 -0.5,0 -0.984375,0.359375 -1.3125,0.75 -0.09375,-0.546875 -0.53125,-0.75 -0.890625,-0.75 -0.46875,0 -0.65625,0.390625 -0.734375,0.5625 C 0.4375,-3.5 0.3125,-2.90625 0.3125,-2.875 c 0,0.109375 0.09375,0.109375 0.109375,0.109375 0.109375,0 0.109375,-0.015625 0.171875,-0.234375 0.171875,-0.703125 0.375,-1.1875 0.734375,-1.1875 0.171875,0 0.3125,0.078125 0.3125,0.453125 0,0.234375 -0.03125,0.34375 -0.078125,0.515625 z m 1.75,-4.328125 C 2.265625,-3.375 2.546875,-3.65625 2.71875,-3.8125 c 0.359375,-0.296875 0.640625,-0.375 0.8125,-0.375 0.390625,0 0.640625,0.34375 0.640625,0.9375 0,0.59375 -0.328125,1.734375 -0.515625,2.109375 -0.34375,0.703125 -0.8125,1.03125 -1.1875,1.03125 C 1.8125,-0.109375 1.6875,-0.9375 1.6875,-1 c 0,-0.015625 0,-0.03125 0.03125,-0.15625 z m 0,0"
             id="path23" />
        </g>
      </g>
      <g
         fill="#000000"
         fill-opacity="1"
         id="g27"
         transform="matrix(0.352778,0,0,0.352778,-32.3189,-27.3603)">
        <g
           id="g26"
           transform="translate(96.938004,83.457001)">
          <path
             d="m 3.71875,-2.53125 c 0,-0.546875 -0.328125,-0.546875 -0.34375,-0.546875 -0.1875,0 -0.375,0.1875 -0.375,0.375 0,0.109375 0.0625,0.171875 0.109375,0.203125 0.125,0.109375 0.265625,0.28125 0.265625,0.5625 0,0.3125 -0.46875,1.8125 -1.296875,1.8125 -0.5625,0 -0.5625,-0.5 -0.5625,-0.625 0,-0.3125 0.125,-0.703125 0.390625,-1.359375 C 1.953125,-2.25 2,-2.359375 2,-2.46875 2,-2.84375 1.6875,-3.078125 1.34375,-3.078125 0.640625,-3.078125 0.328125,-2.125 0.328125,-2 c 0,0.078125 0.09375,0.078125 0.125,0.078125 0.09375,0 0.09375,-0.03125 0.125,-0.109375 C 0.734375,-2.59375 1.03125,-2.875 1.3125,-2.875 c 0.125,0 0.171875,0.078125 0.171875,0.234375 0,0.171875 -0.046875,0.3125 -0.125,0.46875 -0.296875,0.78125 -0.375,1.078125 -0.375,1.328125 0,0.6875 0.546875,0.90625 1.078125,0.90625 1.171875,0 1.65625,-2.015625 1.65625,-2.59375 z m 0,0"
             id="path25" />
        </g>
      </g>
      <g
         fill="#000000"
         fill-opacity="1"
         id="g29"
         transform="matrix(0.352778,0,0,0.352778,-32.3189,-27.3603)">
        <g
           id="g28"
           transform="translate(100.923,84.453003)">
          <path
             d="M 2.9375,-0.96875 H 2.71875 c 0,0.09375 -0.0625,0.40625 -0.140625,0.453125 -0.03125,0.03125 -0.453125,0.03125 -0.53125,0.03125 H 1.078125 C 1.40625,-0.71875 1.765625,-1 2.0625,-1.203125 c 0.453125,-0.3125 0.875,-0.59375 0.875,-1.125 0,-0.640625 -0.609375,-0.984375 -1.3125,-0.984375 -0.671875,0 -1.171875,0.375 -1.171875,0.875 0,0.25 0.21875,0.296875 0.296875,0.296875 0.125,0 0.28125,-0.09375 0.28125,-0.296875 0,-0.171875 -0.125,-0.28125 -0.28125,-0.28125 0.140625,-0.234375 0.4375,-0.375 0.765625,-0.375 0.484375,0 0.890625,0.28125 0.890625,0.765625 0,0.421875 -0.296875,0.75 -0.671875,1.0625 l -1.21875,1.03125 C 0.46875,-0.1875 0.453125,-0.1875 0.453125,-0.15625 V 0 h 2.3125 z m 0,0"
             id="path27" />
        </g>
      </g>
    </g>
    <g
       inkscape:label=""
       transform="translate(108.59151,102.47442)"
       id="g37">
      <g
         fill="#000000"
         fill-opacity="1"
         id="g32"
         transform="matrix(0.352778,0,0,0.352778,-32.3189,-27.3603)">
        <g
           id="g31"
           transform="translate(91.925003,81.962997)">
          <path
             d="M 0.453125,1.21875 C 0.375,1.5625 0.34375,1.625 -0.09375,1.625 c -0.109375,0 -0.21875,0 -0.21875,0.1875 0,0.078125 0.046875,0.125 0.125,0.125 0.265625,0 0.5625,-0.03125 0.828125,-0.03125 0.34375,0 0.671875,0.03125 1,0.03125 0.046875,0 0.171875,0 0.171875,-0.203125 C 1.8125,1.625 1.71875,1.625 1.578125,1.625 c -0.5,0 -0.5,-0.0625 -0.5,-0.15625 0,-0.125 0.421875,-1.75 0.484375,-2 0.125,0.296875 0.40625,0.640625 0.921875,0.640625 1.15625,0 2.40625,-1.453125 2.40625,-2.921875 0,-0.9375 -0.578125,-1.59375 -1.328125,-1.59375 -0.5,0 -0.984375,0.359375 -1.3125,0.75 -0.09375,-0.546875 -0.53125,-0.75 -0.890625,-0.75 -0.46875,0 -0.65625,0.390625 -0.734375,0.5625 C 0.4375,-3.5 0.3125,-2.90625 0.3125,-2.875 c 0,0.109375 0.09375,0.109375 0.109375,0.109375 0.109375,0 0.109375,-0.015625 0.171875,-0.234375 0.171875,-0.703125 0.375,-1.1875 0.734375,-1.1875 0.171875,0 0.3125,0.078125 0.3125,0.453125 0,0.234375 -0.03125,0.34375 -0.078125,0.515625 z m 1.75,-4.328125 C 2.265625,-3.375 2.546875,-3.65625 2.71875,-3.8125 c 0.359375,-0.296875 0.640625,-0.375 0.8125,-0.375 0.390625,0 0.640625,0.34375 0.640625,0.9375 0,0.59375 -0.328125,1.734375 -0.515625,2.109375 -0.34375,0.703125 -0.8125,1.03125 -1.1875,1.03125 C 1.8125,-0.109375 1.6875,-0.9375 1.6875,-1 c 0,-0.015625 0,-0.03125 0.03125,-0.15625 z m 0,0"
             id="path30" />
        </g>
      </g>
      <g
         fill="#000000"
         fill-opacity="1"
         id="g34"
         transform="matrix(0.352778,0,0,0.352778,-32.3189,-27.3603)">
        <g
           id="g33"
           transform="translate(96.938004,83.457001)">
          <path
             d="m 3.71875,-2.53125 c 0,-0.546875 -0.328125,-0.546875 -0.34375,-0.546875 -0.1875,0 -0.375,0.1875 -0.375,0.375 0,0.109375 0.0625,0.171875 0.109375,0.203125 0.125,0.109375 0.265625,0.28125 0.265625,0.5625 0,0.3125 -0.46875,1.8125 -1.296875,1.8125 -0.5625,0 -0.5625,-0.5 -0.5625,-0.625 0,-0.3125 0.125,-0.703125 0.390625,-1.359375 C 1.953125,-2.25 2,-2.359375 2,-2.46875 2,-2.84375 1.6875,-3.078125 1.34375,-3.078125 0.640625,-3.078125 0.328125,-2.125 0.328125,-2 c 0,0.078125 0.09375,0.078125 0.125,0.078125 0.09375,0 0.09375,-0.03125 0.125,-0.109375 C 0.734375,-2.59375 1.03125,-2.875 1.3125,-2.875 c 0.125,0 0.171875,0.078125 0.171875,0.234375 0,0.171875 -0.046875,0.3125 -0.125,0.46875 -0.296875,0.78125 -0.375,1.078125 -0.375,1.328125 0,0.6875 0.546875,0.90625 1.078125,0.90625 1.171875,0 1.65625,-2.015625 1.65625,-2.59375 z m 0,0"
             id="path32" />
        </g>
      </g>
      <g
         fill="#000000"
         fill-opacity="1"
         id="g36"
         transform="matrix(0.352778,0,0,0.352778,-32.3189,-27.3603)">
        <g
           id="g35"
           transform="translate(100.923,84.453003)">
          <path
             d="M 1.984375,-3.171875 C 1.984375,-3.3125 1.96875,-3.3125 1.796875,-3.3125 1.453125,-3 0.890625,-3 0.796875,-3 H 0.71875 v 0.21875 h 0.078125 c 0.109375,0 0.4375,-0.015625 0.734375,-0.140625 v 2.5 c 0,0.140625 0,0.203125 -0.53125,0.203125 H 0.75 V 0 c 0.265625,-0.015625 0.71875,-0.015625 1,-0.015625 0.296875,0 0.734375,0 1.015625,0.015625 v -0.21875 h -0.25 c -0.53125,0 -0.53125,-0.0625 -0.53125,-0.203125 z m 0,0"
             id="path34" />
        </g>
      </g>
    </g>
  </g>
</svg>
