<?xml version="1.0" encoding="UTF-8" standalone="no"?>
<!-- Created with Inkscape (http://www.inkscape.org/) -->

<svg
   width="147.76979mm"
   height="98.17099mm"
   viewBox="0 0 147.76979 98.17099"
   version="1.1"
   id="svg1"
   inkscape:version="1.3.2 (091e20e, 2023-11-25)"
   sodipodi:docname="min_sum_tree_3.svg"
   xmlns:inkscape="http://www.inkscape.org/namespaces/inkscape"
   xmlns:sodipodi="http://sodipodi.sourceforge.net/DTD/sodipodi-0.dtd"
   xmlns="http://www.w3.org/2000/svg"
   xmlns:svg="http://www.w3.org/2000/svg">
  <sodipodi:namedview
     id="namedview1"
     pagecolor="#ffffff"
     bordercolor="#000000"
     borderopacity="0.25"
     inkscape:showpageshadow="2"
     inkscape:pageopacity="0.0"
     inkscape:pagecheckerboard="0"
     inkscape:deskcolor="#d1d1d1"
     inkscape:document-units="mm"
     inkscape:zoom="1.4815911"
     inkscape:cx="191.01087"
     inkscape:cy="288.20368"
     inkscape:window-width="2560"
     inkscape:window-height="1376"
     inkscape:window-x="2880"
     inkscape:window-y="27"
     inkscape:window-maximized="1"
     inkscape:current-layer="layer1" />
  <defs
     id="defs1">
    <clipPath
       clipPathUnits="userSpaceOnUse"
       id="clipPath80">
      <path
         d="M -1,-1 H 12.706 V 10.245 H -1 Z"
         transform="matrix(1,0,0,-1,-2.5000001e-6,0)"
         id="path80" />
    </clipPath>
    <clipPath
       clipPathUnits="userSpaceOnUse"
       id="clipPath82">
      <path
         d="M -1,-1 H 8.024 V 10.245 H -1 Z"
         transform="matrix(1,0,0,-1,2.5000001e-6,0)"
         id="path82" />
    </clipPath>
    <clipPath
       clipPathUnits="userSpaceOnUse"
       id="clipPath84">
      <path
         d="M -1,-1 H 7.721 V 7.177 H -1 Z"
         transform="matrix(1,0,0,-1,-2.5000001e-6,2.4999988e-7)"
         id="path84" />
    </clipPath>
    <clipPath
       clipPathUnits="userSpaceOnUse"
       id="clipPath103">
      <path
         d="M -1,-1 H 33.493 V 10.245 H -1 Z"
         transform="matrix(1,0,0,-1,-2.5000002e-6,2.4999994e-7)"
         id="path103" />
    </clipPath>
  </defs>
  <g
     inkscape:label="Layer 1"
     inkscape:groupmode="layer"
     id="layer1"
     transform="translate(-34.527455,-32.410982)">
    <path
       id="path2"
       d="M 82.236061,40.608479 59.658285,63.186257 54.013841,91.408482 42.724952,113.98625 v 0"
       style="fill:none;stroke:#000000;stroke-width:0.423333;stroke-linecap:butt;stroke-linejoin:round;stroke-miterlimit:10;stroke-dasharray:none;stroke-opacity:1" />
    <path
       id="path3"
       d="m 82.236061,40.608479 24.741369,31.232122 17.79128,9.502071 -19.61091,18.802348 -8.693506,22.23946 v 0"
       style="fill:none;stroke:#000000;stroke-width:0.423333;stroke-linecap:butt;stroke-linejoin:round;stroke-miterlimit:10;stroke-dasharray:none;stroke-opacity:1" />
    <path
       id="path4"
       d="m 124.76871,81.342672 35.38079,16.78058 13.95025,21.834818 v 0"
       style="fill:none;stroke:#000000;stroke-width:0.423333;stroke-linecap:butt;stroke-linejoin:round;stroke-miterlimit:10;stroke-dasharray:none;stroke-opacity:1" />
    <path
       id="path5"
       d="m 90.363003,40.608479 c 0,-4.488391 -3.63855,-8.126941 -8.126942,-8.126941 -4.488391,0 -8.126941,3.63855 -8.126941,8.126941 0,4.488392 3.63855,8.126941 8.126941,8.126941 4.488392,0 8.126942,-3.638549 8.126942,-8.126941"
       style="fill:none;stroke:#000000;stroke-width:0.141111;stroke-linecap:butt;stroke-linejoin:round;stroke-miterlimit:10;stroke-dasharray:none;stroke-opacity:1" />
    <path
       id="path6"
       d="m 67.785226,63.186257 c 0,-4.488392 -3.63855,-8.126941 -8.126941,-8.126941 -4.488392,0 -8.126942,3.638549 -8.126942,8.126941 0,4.488392 3.63855,8.126939 8.126942,8.126939 4.488391,0 8.126941,-3.638547 8.126941,-8.126939"
       style="fill:none;stroke:#000000;stroke-width:0.141111;stroke-linecap:butt;stroke-linejoin:round;stroke-miterlimit:10;stroke-dasharray:none;stroke-opacity:1" />
    <path
       id="path7"
       d="m 115.10437,71.840601 c 0,-4.488392 -3.63855,-8.126942 -8.12694,-8.126942 -4.4884,0 -8.126946,3.63855 -8.126946,8.126942 0,4.488041 3.638546,8.126591 8.126946,8.126591 4.48839,0 8.12694,-3.63855 8.12694,-8.126591"
       style="fill:none;stroke:#000000;stroke-width:0.141111;stroke-linecap:butt;stroke-linejoin:round;stroke-miterlimit:10;stroke-dasharray:none;stroke-opacity:1" />
    <path
       id="path8"
       d="m 132.89566,81.342672 c 0,-4.48839 -3.63855,-8.126945 -8.12695,-8.126945 -4.48839,0 -8.12694,3.638555 -8.12694,8.126945 0,4.48839 3.63855,8.12694 8.12694,8.12694 4.4884,0 8.12695,-3.63855 8.12695,-8.12694"
       style="fill:none;stroke:#000000;stroke-width:0.141111;stroke-linecap:butt;stroke-linejoin:round;stroke-miterlimit:10;stroke-dasharray:none;stroke-opacity:1" />
    <path
       id="path9"
       d="m 113.28474,100.14502 c 0,-4.488388 -3.63855,-8.126938 -8.12694,-8.126938 -4.4884,0 -8.126945,3.63855 -8.126945,8.126938 0,4.48839 3.638545,8.12694 8.126945,8.12694 4.48839,0 8.12694,-3.63855 8.12694,-8.12694"
       style="fill:none;stroke:#000000;stroke-width:0.141111;stroke-linecap:butt;stroke-linejoin:round;stroke-miterlimit:10;stroke-dasharray:none;stroke-opacity:1" />
    <path
       id="path10"
       d="m 104.59124,122.38448 c 0,-4.48839 -3.63855,-8.12694 -8.126946,-8.12694 -4.488391,0 -8.126941,3.63855 -8.126941,8.12694 0,4.48839 3.63855,8.12694 8.126941,8.12694 4.488396,0 8.126946,-3.63855 8.126946,-8.12694"
       style="fill:none;stroke:#000000;stroke-width:0.141111;stroke-linecap:butt;stroke-linejoin:round;stroke-miterlimit:10;stroke-dasharray:none;stroke-opacity:1" />
    <path
       id="path11"
       d="m 50.851893,113.98625 c 0,-4.48839 -3.638549,-8.12694 -8.126941,-8.12694 -4.488391,0 -8.126941,3.63855 -8.126941,8.12694 0,4.48839 3.63855,8.12694 8.126941,8.12694 4.488392,0 8.126941,-3.63855 8.126941,-8.12694"
       style="fill:none;stroke:#000000;stroke-width:0.141111;stroke-linecap:butt;stroke-linejoin:round;stroke-miterlimit:10;stroke-dasharray:none;stroke-opacity:1" />
    <path
       id="path12"
       d="m 62.140783,91.408482 c 0,-4.4884 -3.63855,-8.12695 -8.126942,-8.12695 -4.488392,0 -8.126942,3.63855 -8.126942,8.12695 0,4.48839 3.63855,8.12694 8.126942,8.12694 4.488392,0 8.126942,-3.63855 8.126942,-8.12694"
       style="fill:none;stroke:#000000;stroke-width:0.141111;stroke-linecap:butt;stroke-linejoin:round;stroke-miterlimit:10;stroke-dasharray:none;stroke-opacity:1" />
    <path
       id="path13"
       d="m 168.27644,98.123252 c 0,-4.48839 -3.63855,-8.12694 -8.12694,-8.12694 -4.48839,0 -8.12694,3.63855 -8.12694,8.12694 0,4.488388 3.63855,8.126938 8.12694,8.126938 4.48839,0 8.12694,-3.63855 8.12694,-8.126938"
       style="fill:none;stroke:#000000;stroke-width:0.141111;stroke-linecap:butt;stroke-linejoin:round;stroke-miterlimit:10;stroke-dasharray:none;stroke-opacity:1" />
    <path
       id="path14"
       d="m 182.22669,119.95807 c 0,-4.48839 -3.63855,-8.12694 -8.12694,-8.12694 -4.4884,0 -8.12695,3.63855 -8.12695,8.12694 0,4.4884 3.63855,8.12695 8.12695,8.12695 4.48839,0 8.12694,-3.63855 8.12694,-8.12695"
       style="fill:none;stroke:#000000;stroke-width:0.141111;stroke-linecap:butt;stroke-linejoin:round;stroke-miterlimit:10;stroke-dasharray:none;stroke-opacity:1" />
    <path
       id="path15"
       d="m 35.109891,111.14815 11.360855,-22.763678 5.078589,-25.739378 7.14e-4,-0.0081"
       style="fill:none;stroke:#000000;stroke-width:0.141111;stroke-linecap:butt;stroke-linejoin:round;stroke-miterlimit:10;stroke-dasharray:none;stroke-opacity:1" />
    <path
       id="path16"
       d="M 54.558528,56.858834 77.211449,34.221085 v 0"
       style="fill:none;stroke:#000000;stroke-width:0.141111;stroke-linecap:butt;stroke-linejoin:round;stroke-miterlimit:10;stroke-dasharray:none;stroke-opacity:1" />
    <path
       id="path17"
       d="M 49.116227,119.00628 60.808693,95.866532 v 0"
       style="fill:none;stroke:#000000;stroke-width:0.141111;stroke-linecap:butt;stroke-linejoin:round;stroke-miterlimit:10;stroke-dasharray:none;stroke-opacity:1" />
    <path
       id="path18"
       d="m 89.099705,36.345513 24.641175,31.066315 v 0"
       style="fill:none;stroke:#000000;stroke-width:0.141111;stroke-linecap:butt;stroke-linejoin:round;stroke-miterlimit:10;stroke-dasharray:none;stroke-opacity:1" />
    <path
       id="path19"
       d="M 168.04714,125.38168 153.53139,102.83953"
       style="fill:none;stroke:#000000;stroke-width:0.141111;stroke-linecap:butt;stroke-linejoin:round;stroke-miterlimit:10;stroke-dasharray:none;stroke-opacity:1" />
    <path
       id="path20"
       d="m 117.5657,77.579942 -18.094329,16.75906 v 0"
       style="fill:none;stroke:#000000;stroke-width:0.141111;stroke-linecap:butt;stroke-linejoin:round;stroke-miterlimit:10;stroke-dasharray:none;stroke-opacity:1" />
    <path
       id="path21"
       d="m 130.19091,87.396332 -18.77942,17.938748 -0.0275,0.0332"
       style="fill:none;stroke:#000000;stroke-width:0.141111;stroke-linecap:butt;stroke-linejoin:round;stroke-miterlimit:10;stroke-dasharray:none;stroke-opacity:1" />
    <path
       id="path22"
       d="m 88.555721,120.5137 8.847667,-22.800378 v 0"
       style="fill:none;stroke:#000000;stroke-width:0.141111;stroke-linecap:butt;stroke-linejoin:round;stroke-miterlimit:10;stroke-dasharray:none;stroke-opacity:1" />
    <path
       id="path23"
       d="m 62.012724,92.844632 5.731579,-28.846281 v 0"
       style="fill:none;stroke:#000000;stroke-width:0.141111;stroke-linecap:butt;stroke-linejoin:round;stroke-miterlimit:10;stroke-dasharray:none;stroke-opacity:1" />
    <path
       id="path24"
       d="M 65.265686,69.068826 88.58853,45.67719 v 0"
       style="fill:none;stroke:#000000;stroke-width:0.141111;stroke-linecap:butt;stroke-linejoin:round;stroke-miterlimit:10;stroke-dasharray:none;stroke-opacity:1" />
    <path
       id="path25"
       d="m 113.07554,101.97593 -9.2269,23.80192 v 0"
       style="fill:none;stroke:#000000;stroke-width:0.141111;stroke-linecap:butt;stroke-linejoin:round;stroke-miterlimit:10;stroke-dasharray:none;stroke-opacity:1" />
    <path
       id="path26"
       d="m 128.86164,74.321686 35.15219,16.652166"
       style="fill:none;stroke:#000000;stroke-width:0.141111;stroke-linecap:butt;stroke-linejoin:round;stroke-miterlimit:10;stroke-dasharray:none;stroke-opacity:1" />
    <path
       id="path27"
       d="m 167.1218,93.948122 13.71635,21.466878 0.0346,0.0522"
       style="fill:none;stroke:#000000;stroke-width:0.141111;stroke-linecap:butt;stroke-linejoin:round;stroke-miterlimit:10;stroke-dasharray:none;stroke-opacity:1" />
    <path
       id="path28"
       d="m 110.72745,64.630528 16.80669,9.070268 v 0"
       style="fill:none;stroke:#000000;stroke-width:0.141111;stroke-linecap:butt;stroke-linejoin:round;stroke-miterlimit:10;stroke-dasharray:none;stroke-opacity:1" />
    <path
       id="path29"
       d="m 103.94389,79.379812 16.43874,8.80428"
       style="fill:none;stroke:#000000;stroke-width:0.141111;stroke-linecap:butt;stroke-linejoin:round;stroke-miterlimit:10;stroke-dasharray:none;stroke-opacity:1" />
    <path
       id="path30"
       d="M 157.20557,105.69809 121.7955,88.906222 v 0"
       style="fill:none;stroke:#000000;stroke-width:0.141111;stroke-linecap:butt;stroke-linejoin:round;stroke-miterlimit:10;stroke-dasharray:none;stroke-opacity:1" />
    <path
       id="path31"
       d="m 76.561278,46.425784 24.512062,30.998938 v 0"
       style="fill:none;stroke:#000000;stroke-width:0.141111;stroke-linecap:butt;stroke-linejoin:round;stroke-miterlimit:10;stroke-dasharray:none;stroke-opacity:1" />
    <path
       id="path32"
       d="m 43.783285,113.98625 c 0,-0.58455 -0.47378,-1.05833 -1.058333,-1.05833 -0.584553,0 -1.058333,0.47378 -1.058333,1.05833 0,0.58455 0.47378,1.05834 1.058333,1.05834 0.584553,0 1.058333,-0.47379 1.058333,-1.05834"
       style="fill:#000000;fill-opacity:1;fill-rule:evenodd;stroke:none;stroke-width:0.352777" />
    <path
       id="path33"
       d="m 55.072174,91.408482 c 0,-0.58456 -0.473781,-1.05834 -1.058333,-1.05834 -0.584554,0 -1.058334,0.47378 -1.058334,1.05834 0,0.58455 0.47378,1.05833 1.058334,1.05833 0.584552,0 1.058333,-0.47378 1.058333,-1.05833"
       style="fill:#000000;fill-opacity:1;fill-rule:evenodd;stroke:none;stroke-width:0.352777" />
    <path
       id="path34"
       d="m 60.716618,63.186257 c 0,-0.584554 -0.473781,-1.058333 -1.058333,-1.058333 -0.584552,0 -1.058334,0.473779 -1.058334,1.058333 0,0.584552 0.473782,1.058333 1.058334,1.058333 0.584552,0 1.058333,-0.473781 1.058333,-1.058333"
       style="fill:#000001;fill-opacity:1;fill-rule:evenodd;stroke:none;stroke-width:0.352777" />
    <path
       id="path35"
       d="m 83.294395,40.608479 c 0,-0.584553 -0.473779,-1.058333 -1.058334,-1.058333 -0.584552,0 -1.058333,0.47378 -1.058333,1.058333 0,0.584553 0.473781,1.058333 1.058333,1.058333 0.584555,0 1.058334,-0.47378 1.058334,-1.058333"
       style="fill:#000000;fill-opacity:1;fill-rule:evenodd;stroke:none;stroke-width:0.352777" />
    <path
       id="path36"
       d="m 108.03576,71.840601 c 0,-0.584555 -0.47378,-1.058334 -1.05833,-1.058334 -0.58456,0 -1.05834,0.473779 -1.05834,1.058334 0,0.584551 0.47378,1.058333 1.05834,1.058333 0.58455,0 1.05833,-0.473782 1.05833,-1.058333"
       style="fill:#000000;fill-opacity:1;fill-rule:evenodd;stroke:none;stroke-width:0.352777" />
    <path
       id="path37"
       d="m 125.82705,81.342672 c 0,-0.58455 -0.47378,-1.05834 -1.05834,-1.05834 -0.58455,0 -1.05833,0.47379 -1.05833,1.05834 0,0.58455 0.47378,1.05833 1.05833,1.05833 0.58456,0 1.05834,-0.47378 1.05834,-1.05833"
       style="fill:#000001;fill-opacity:1;fill-rule:evenodd;stroke:none;stroke-width:0.352777" />
    <path
       id="path38"
       d="m 106.21613,100.14502 c 0,-0.584558 -0.47378,-1.058338 -1.05833,-1.058338 -0.58456,0 -1.05834,0.47378 -1.05834,1.058338 0,0.58455 0.47378,1.05833 1.05834,1.05833 0.58455,0 1.05833,-0.47378 1.05833,-1.05833"
       style="fill:#000000;fill-opacity:1;fill-rule:evenodd;stroke:none;stroke-width:0.352777" />
    <path
       id="path39"
       d="m 97.522628,122.38448 c 0,-0.58455 -0.473782,-1.05833 -1.058334,-1.05833 -0.584551,0 -1.058333,0.47378 -1.058333,1.05833 0,0.58455 0.473782,1.05833 1.058333,1.05833 0.584552,0 1.058334,-0.47378 1.058334,-1.05833"
       style="fill:#000000;fill-opacity:1;fill-rule:evenodd;stroke:none;stroke-width:0.352777" />
    <path
       id="path40"
       d="m 161.20783,98.123252 c 0,-0.58456 -0.47378,-1.05834 -1.05833,-1.05834 -0.58455,0 -1.05833,0.47378 -1.05833,1.05834 0,0.58455 0.47378,1.05833 1.05833,1.05833 0.58455,0 1.05833,-0.47378 1.05833,-1.05833"
       style="fill:#000000;fill-opacity:1;fill-rule:evenodd;stroke:none;stroke-width:0.352777" />
    <path
       id="path41"
       d="m 175.15808,119.95807 c 0,-0.58455 -0.47378,-1.05833 -1.05833,-1.05833 -0.58456,0 -1.05834,0.47378 -1.05834,1.05833 0,0.58456 0.47378,1.05834 1.05834,1.05834 0.58455,0 1.05833,-0.47378 1.05833,-1.05834"
       style="fill:#000000;fill-opacity:1;fill-rule:evenodd;stroke:none;stroke-width:0.352777" />
    <path
       id="path42"
       d="M 119.20188,77.237042 108.24601,70.284496 84.018295,39.259457 v 0"
       style="fill:none;stroke:#ff0000;stroke-width:0.141111;stroke-linecap:butt;stroke-linejoin:round;stroke-miterlimit:10;stroke-dasharray:none;stroke-opacity:1" />
    <path
       id="path43"
       d="m 131.04357,76.178002 -2.67405,-1.302101 -2.77813,5.139271 -6.38951,-2.77813 -1.02341,-0.64946 v 0"
       style="fill:none;stroke:#ff0000;stroke-width:0.141111;stroke-linecap:butt;stroke-linejoin:round;stroke-miterlimit:10;stroke-dasharray:none;stroke-opacity:1" />
    <path
       id="path44"
       d="m 119.20188,77.237042 -2.3248,2.16605 v 0"
       style="fill:none;stroke:#ff0000;stroke-width:0.141111;stroke-linecap:butt;stroke-linejoin:round;stroke-miterlimit:10;stroke-dasharray:none;stroke-opacity:1" />
    <path
       id="path45"
       d="m 118.40531,86.397272 1.80446,0.98354 v 0"
       style="fill:none;stroke:#ff0000;stroke-width:0.141111;stroke-linecap:butt;stroke-linejoin:round;stroke-miterlimit:10;stroke-dasharray:none;stroke-opacity:1" />
    <path
       id="path46"
       d="m 119.80584,87.778042 4.74803,-4.66478 6.6802,3.15348 v 0"
       style="fill:none;stroke:#ff0000;stroke-width:0.141111;stroke-linecap:butt;stroke-linejoin:round;stroke-miterlimit:10;stroke-dasharray:none;stroke-opacity:1" />
    <path
       id="path47"
       d="M 78.90337,46.315012 61.627843,64.216367 56.285376,91.783132 44.746016,115.5032 v 0"
       style="fill:none;stroke:#ff0000;stroke-width:0.141111;stroke-linecap:butt;stroke-linejoin:round;stroke-miterlimit:10;stroke-dasharray:none;stroke-opacity:1" />
    <path
       id="path48"
       d="M 84.018295,39.259457 79.546133,33.851021 54.174001,59.318753 47.681127,89.729252 36.667405,112.08478 v 0"
       style="fill:none;stroke:#ff0000;stroke-width:0.141111;stroke-linecap:butt;stroke-linejoin:round;stroke-miterlimit:10;stroke-dasharray:none;stroke-opacity:1" />
    <path
       id="path49"
       d="m 74.235416,39.181493 5.310717,-5.330472 9.260413,11.540066 v 0"
       style="fill:none;stroke:#ff0000;stroke-width:0.141023;stroke-linecap:butt;stroke-linejoin:round;stroke-miterlimit:10;stroke-dasharray:none;stroke-opacity:1;paint-order:normal" />
    <path
       id="path50"
       d="m 89.995761,120.32637 9.678107,-24.073548 17.203212,-16.84973 v 0"
       style="fill:none;stroke:#ff0000;stroke-width:0.141111;stroke-linecap:butt;stroke-linejoin:round;stroke-miterlimit:10;stroke-dasharray:none;stroke-opacity:1" />
    <path
       id="path51"
       d="m 131.04357,76.178002 33.47861,16.86948 15.78046,24.739248 v 0"
       style="fill:none;stroke:#ff0000;stroke-width:0.141111;stroke-linecap:butt;stroke-linejoin:round;stroke-miterlimit:10;stroke-dasharray:none;stroke-opacity:1" />
    <g
       id="g85"
       transform="matrix(0.26458333,0,0,0.26458333,19.243005,25.444672)">
      <path
         d="m 5.5789844,-5.8717187 c -0.4453125,0.09375 -0.6679688,0.4101562 -0.6679688,0.7265625 0,0.3398437 0.2695313,0.4570312 0.46875,0.4570312 0.3984375,0 0.7265625,-0.3515625 0.7265625,-0.7734375 0,-0.46875 -0.4453125,-0.8671875 -1.1601562,-0.8671875 -0.5742188,0 -1.2304688,0.2578125 -1.828125,1.1367188 C 3.0125781,-5.95375 2.4383594,-6.32875 1.8641406,-6.32875 c -0.5625,0 -0.84375,0.4335938 -1.01953122,0.75 -0.24609375,0.515625 -0.45703125,1.3710938 -0.45703125,1.4414063 0,0.058594 0.0585938,0.140625 0.1640625,0.140625 0.10546875,0 0.12890625,-0.023437 0.2109375,-0.3515625 0.2109375,-0.8554688 0.48046877,-1.6875 1.05468747,-1.6875 0.3515625,0 0.4453125,0.2460937 0.4453125,0.65625 0,0.3164062 -0.140625,0.8789062 -0.234375,1.3242187 l -0.4101562,1.546875 c -0.058594,0.2695313 -0.2109375,0.9140625 -0.28125,1.171875 -0.1054688,0.375 -0.2578125,1.0546875 -0.2578125,1.125 0,0.19921875 0.1523437,0.3515625 0.375,0.3515625 0.1523437,0 0.421875,-0.09375 0.515625,-0.38671875 C 2.0047656,-0.36390625 2.5438281,-2.5201562 2.6258594,-2.86 2.6961719,-3.1764062 2.7782031,-3.469375 2.8602344,-3.7857812 2.9071094,-3.985 2.9657031,-4.219375 3.0125781,-4.406875 c 0.046875,-0.1289062 0.4335938,-0.8320312 0.7851563,-1.1484375 0.1757812,-0.1523437 0.5507812,-0.4804687 1.1367187,-0.4804687 0.234375,0 0.4570313,0.035156 0.6445313,0.1640625 z m 0,0"
         style="fill:#000080;fill-opacity:1;fill-rule:nonzero;stroke:none"
         aria-label="r"
         transform="matrix(1.3333333,0,0,1.3333333,223.00667,58.813333)"
         clip-path="url(#clipPath84)"
         id="path85" />
    </g>
    <path
       id="path98"
       d="m 78.90337,46.315012 3.061406,-2.903714 2.781652,3.79342 2.212975,3.098094 -2.845152,2.528711 18.065039,23.409269 0.56727,0.72355 15.65875,9.43293 v 0"
       style="fill:none;stroke:#ff0000;stroke-width:0.141111;stroke-linecap:butt;stroke-linejoin:round;stroke-miterlimit:10;stroke-dasharray:none;stroke-opacity:1" />
    <path
       id="path99"
       d="m 77.824224,47.433318 4.140552,-4.02202 3.421237,4.68877 v 0"
       style="fill:none;stroke:#ff0000;stroke-width:0.141111;stroke-linecap:butt;stroke-linejoin:round;stroke-miterlimit:10;stroke-dasharray:none;stroke-opacity:1" />
    <path
       id="path102"
       d="M 120.20977,87.380812 102.74656,76.964342 84.114251,52.831523 86.959403,50.302812 81.964776,43.411298 61.627843,64.216367 56.285376,91.783132 44.746016,115.5032 v 0"
       style="fill:none;stroke:#ff0000;stroke-width:0.423333;stroke-linecap:butt;stroke-linejoin:round;stroke-miterlimit:10;stroke-dasharray:none;stroke-opacity:1" />
    <path
       id="path106"
       d="m 98.704434,123.61955 8.440916,-21.90397 13.06442,-14.334768 4.3441,-4.26755 6.6802,3.15348 27.33216,13.751978 13.37875,21.17231 v 0"
       style="fill:none;stroke:#ff0000;stroke-width:0.423333;stroke-linecap:butt;stroke-linejoin:round;stroke-miterlimit:10;stroke-dasharray:none;stroke-opacity:1" />
    <path
       id="path107"
       d="m 37.725738,112.08478 c 0,-0.58455 -0.47378,-1.05833 -1.058333,-1.05833 -0.584553,0 -1.058333,0.47378 -1.058333,1.05833 0,0.58455 0.47378,1.05833 1.058333,1.05833 0.584553,0 1.058333,-0.47378 1.058333,-1.05833"
       style="fill:#ff0000;fill-opacity:1;fill-rule:evenodd;stroke:none;stroke-width:0.352777" />
    <path
       id="path108"
       d="m 48.73946,89.729252 c 0,-0.58455 -0.47378,-1.05833 -1.058333,-1.05833 -0.584553,0 -1.058333,0.47378 -1.058333,1.05833 0,0.58456 0.47378,1.05834 1.058333,1.05834 0.584553,0 1.058333,-0.47378 1.058333,-1.05834"
       style="fill:#ff0000;fill-opacity:1;fill-rule:evenodd;stroke:none;stroke-width:0.352777" />
    <path
       id="path109"
       d="m 55.232335,59.318753 c 0,-0.584552 -0.473782,-1.058334 -1.058334,-1.058334 -0.584551,0 -1.058333,0.473782 -1.058333,1.058334 0,0.584554 0.473782,1.058333 1.058333,1.058333 0.584552,0 1.058334,-0.473779 1.058334,-1.058333"
       style="fill:#ff0000;fill-opacity:1;fill-rule:evenodd;stroke:none;stroke-width:0.352777" />
    <path
       id="path110"
       d="m 80.604466,33.851021 c 0,-0.584553 -0.473782,-1.058333 -1.058333,-1.058333 -0.584555,0 -1.058334,0.47378 -1.058334,1.058333 0,0.584553 0.473779,1.058333 1.058334,1.058333 0.584551,0 1.058333,-0.47378 1.058333,-1.058333"
       style="fill:#ff0000;fill-opacity:1;fill-rule:evenodd;stroke:none;stroke-width:0.352777" />
    <path
       id="path111"
       d="m 109.30435,70.284496 c 0,-0.584552 -0.47378,-1.058331 -1.05834,-1.058331 -0.58455,0 -1.05833,0.473779 -1.05833,1.058331 0,0.584555 0.47378,1.058333 1.05833,1.058333 0.58456,0 1.05834,-0.473778 1.05834,-1.058333"
       style="fill:#ff0000;fill-opacity:1;fill-rule:evenodd;stroke:none;stroke-width:0.352777" />
    <path
       id="path112"
       d="m 120.26021,77.237042 c 0,-0.58455 -0.47378,-1.05833 -1.05833,-1.05833 -0.58455,0 -1.05833,0.47378 -1.05833,1.05833 0,0.58455 0.47378,1.05833 1.05833,1.05833 0.58455,0 1.05833,-0.47378 1.05833,-1.05833"
       style="fill:#ff0000;fill-opacity:1;fill-rule:evenodd;stroke:none;stroke-width:0.352777" />
    <path
       id="path113"
       d="m 126.64972,80.015172 c 0,-0.58456 -0.47377,-1.05834 -1.05833,-1.05834 -0.58455,0 -1.05833,0.47378 -1.05833,1.05834 0,0.58455 0.47378,1.05833 1.05833,1.05833 0.58456,0 1.05833,-0.47378 1.05833,-1.05833"
       style="fill:#ff0000;fill-opacity:1;fill-rule:evenodd;stroke:none;stroke-width:0.352777" />
    <path
       id="path114"
       d="m 129.42785,74.875901 c 0,-0.584555 -0.47378,-1.058334 -1.05833,-1.058334 -0.58456,0 -1.05834,0.473779 -1.05834,1.058334 0,0.584551 0.47378,1.058331 1.05834,1.058331 0.58455,0 1.05833,-0.47378 1.05833,-1.058331"
       style="fill:#ff0000;fill-opacity:1;fill-rule:evenodd;stroke:none;stroke-width:0.352777" />
    <path
       id="path115"
       d="m 165.58052,93.047482 c 0,-0.58455 -0.47379,-1.05833 -1.05834,-1.05833 -0.58455,0 -1.05833,0.47378 -1.05833,1.05833 0,0.58455 0.47378,1.05833 1.05833,1.05833 0.58455,0 1.05834,-0.47378 1.05834,-1.05833"
       style="fill:#ff0000;fill-opacity:1;fill-rule:evenodd;stroke:none;stroke-width:0.352777" />
    <path
       id="path116"
       d="m 181.36097,117.78673 c 0,-0.58456 -0.47378,-1.05834 -1.05833,-1.05834 -0.58456,0 -1.05834,0.47378 -1.05834,1.05834 0,0.58455 0.47378,1.05833 1.05834,1.05833 0.58455,0 1.05833,-0.47378 1.05833,-1.05833"
       style="fill:#ff0000;fill-opacity:1;fill-rule:evenodd;stroke:none;stroke-width:0.352777" />
    <path
       id="path117"
       d="m 173.00331,121.19103 c 0,-0.58455 -0.47378,-1.05833 -1.05833,-1.05833 -0.58455,0 -1.05833,0.47378 -1.05833,1.05833 0,0.58456 0.47378,1.05834 1.05833,1.05834 0.58455,0 1.05833,-0.47378 1.05833,-1.05834"
       style="fill:#ff0000;fill-opacity:1;fill-rule:evenodd;stroke:none;stroke-width:0.352777" />
    <path
       id="path118"
       d="m 159.62457,100.01872 c 0,-0.584548 -0.47378,-1.058328 -1.05834,-1.058328 -0.58455,0 -1.05833,0.47378 -1.05833,1.058328 0,0.58456 0.47378,1.05834 1.05833,1.05834 0.58456,0 1.05834,-0.47378 1.05834,-1.05834"
       style="fill:#ff0000;fill-opacity:1;fill-rule:evenodd;stroke:none;stroke-width:0.352777" />
    <path
       id="path119"
       d="m 125.61221,83.113262 c 0,-0.58455 -0.47379,-1.05833 -1.05834,-1.05833 -0.58455,0 -1.05833,0.47378 -1.05833,1.05833 0,0.58455 0.47378,1.05833 1.05833,1.05833 0.58455,0 1.05834,-0.47378 1.05834,-1.05833"
       style="fill:#ff0000;fill-opacity:1;fill-rule:evenodd;stroke:none;stroke-width:0.352777" />
    <path
       id="path120"
       d="m 121.2681,87.380812 c 0,-0.58455 -0.47378,-1.05833 -1.05833,-1.05833 -0.58456,0 -1.05834,0.47378 -1.05834,1.05833 0,0.58456 0.47378,1.05833 1.05834,1.05833 0.58455,0 1.05833,-0.47377 1.05833,-1.05833"
       style="fill:#ff0000;fill-opacity:1;fill-rule:evenodd;stroke:none;stroke-width:0.352777" />
    <path
       id="path121"
       d="m 108.20368,101.71558 c 0,-0.58455 -0.47378,-1.05833 -1.05833,-1.05833 -0.58456,0 -1.05834,0.47378 -1.05834,1.05833 0,0.58456 0.47378,1.05834 1.05834,1.05834 0.58455,0 1.05833,-0.47378 1.05833,-1.05834"
       style="fill:#ff0000;fill-opacity:1;fill-rule:evenodd;stroke:none;stroke-width:0.352777" />
    <path
       id="path122"
       d="m 99.762767,123.61955 c 0,-0.58455 -0.473781,-1.05833 -1.058333,-1.05833 -0.584554,0 -1.058333,0.47378 -1.058333,1.05833 0,0.58456 0.473779,1.05834 1.058333,1.05834 0.584552,0 1.058333,-0.47378 1.058333,-1.05834"
       style="fill:#ff0000;fill-opacity:1;fill-rule:evenodd;stroke:none;stroke-width:0.352777" />
    <path
       id="path123"
       d="m 91.054095,120.32637 c 0,-0.58455 -0.473782,-1.05833 -1.058334,-1.05833 -0.584552,0 -1.058333,0.47378 -1.058333,1.05833 0,0.58456 0.473781,1.05834 1.058333,1.05834 0.584552,0 1.058334,-0.47378 1.058334,-1.05834"
       style="fill:#ff0000;fill-opacity:1;fill-rule:evenodd;stroke:none;stroke-width:0.352777" />
    <path
       id="path124"
       d="m 100.7322,96.252822 c 0,-0.58455 -0.47378,-1.05833 -1.058332,-1.05833 -0.584555,0 -1.058334,0.47378 -1.058334,1.05833 0,0.58455 0.473779,1.05833 1.058334,1.05833 0.584552,0 1.058332,-0.47378 1.058332,-1.05833"
       style="fill:#ff0000;fill-opacity:1;fill-rule:evenodd;stroke:none;stroke-width:0.352777" />
    <path
       id="path125"
       d="m 103.80489,76.964342 c 0,-0.58455 -0.47378,-1.05833 -1.05833,-1.05833 -0.58455,0 -1.05833,0.47378 -1.05833,1.05833 0,0.58455 0.47378,1.05834 1.05833,1.05834 0.58455,0 1.05833,-0.47379 1.05833,-1.05834"
       style="fill:#ff0000;fill-opacity:1;fill-rule:evenodd;stroke:none;stroke-width:0.352777" />
    <path
       id="path126"
       d="m 85.172584,52.831523 c 0,-0.584553 -0.473781,-1.058333 -1.058333,-1.058333 -0.584552,0 -1.058333,0.47378 -1.058333,1.058333 0,0.584553 0.473781,1.058334 1.058333,1.058334 0.584552,0 1.058333,-0.473781 1.058333,-1.058334"
       style="fill:#ff0000;fill-opacity:1;fill-rule:evenodd;stroke:none;stroke-width:0.352777" />
    <path
       id="path127"
       d="m 88.017736,50.302812 c 0,-0.584553 -0.473781,-1.058333 -1.058333,-1.058333 -0.584552,0 -1.058333,0.47378 -1.058333,1.058333 0,0.584553 0.473781,1.058333 1.058333,1.058333 0.584552,0 1.058333,-0.47378 1.058333,-1.058333"
       style="fill:#ff0000;fill-opacity:1;fill-rule:evenodd;stroke:none;stroke-width:0.352777" />
    <path
       id="path128"
       d="m 83.023109,43.411298 c 0,-0.584552 -0.473781,-1.058333 -1.058333,-1.058333 -0.584552,0 -1.058333,0.473781 -1.058333,1.058333 0,0.584553 0.473781,1.058334 1.058333,1.058334 0.584552,0 1.058333,-0.473781 1.058333,-1.058334"
       style="fill:#ff0000;fill-opacity:1;fill-rule:evenodd;stroke:none;stroke-width:0.352777" />
    <path
       id="path129"
       d="m 62.686176,64.216367 c 0,-0.584552 -0.473781,-1.058333 -1.058333,-1.058333 -0.584552,0 -1.058333,0.473781 -1.058333,1.058333 0,0.584552 0.473781,1.058334 1.058333,1.058334 0.584552,0 1.058333,-0.473782 1.058333,-1.058334"
       style="fill:#ff0000;fill-opacity:1;fill-rule:evenodd;stroke:none;stroke-width:0.352777" />
    <path
       id="path130"
       d="m 57.34371,91.783132 c 0,-0.58456 -0.473782,-1.05834 -1.058334,-1.05834 -0.584552,0 -1.058333,0.47378 -1.058333,1.05834 0,0.58455 0.473781,1.05833 1.058333,1.05833 0.584552,0 1.058334,-0.47378 1.058334,-1.05833"
       style="fill:#ff0000;fill-opacity:1;fill-rule:evenodd;stroke:none;stroke-width:0.352777" />
    <path
       id="path131"
       d="m 45.804349,115.5032 c 0,-0.58456 -0.47378,-1.05834 -1.058333,-1.05834 -0.584553,0 -1.058333,0.47378 -1.058333,1.05834 0,0.58455 0.47378,1.05833 1.058333,1.05833 0.584553,0 1.058333,-0.47378 1.058333,-1.05833"
       style="fill:#ff0000;fill-opacity:1;fill-rule:evenodd;stroke:none;stroke-width:0.352777" />
    <path
       style="fill:none;fill-rule:evenodd;stroke:#ff0000;stroke-width:0.4;stroke-linecap:butt;stroke-linejoin:miter;stroke-miterlimit:0;stroke-dasharray:none;paint-order:normal"
       d="m 82.596114,39.147257 2.503152,0.0056"
       id="path54" />
    <path
       style="fill:none;fill-rule:evenodd;stroke:#ff0000;stroke-width:0.4;stroke-linecap:butt;stroke-linejoin:miter;stroke-miterlimit:0;stroke-dasharray:none;paint-order:normal"
       d="m 83.873467,37.875422 -0.0056,2.503152"
       id="path54-1" />
    <g
       inkscape:label=""
       transform="translate(49.362702,87.764814)"
       id="g67">
      <g
         fill="#000000"
         fill-opacity="1"
         id="g3"
         transform="matrix(0.493889,0,0,0.493889,-45.5474,-38.3044)">
        <g
           id="use2"
           transform="translate(91.925003,81.962997)">
          <path
             d="M 3.484375,-0.5625 C 3.59375,-0.15625 3.953125,0.109375 4.375,0.109375 4.71875,0.109375 4.953125,-0.125 5.109375,-0.4375 5.28125,-0.796875 5.40625,-1.40625 5.40625,-1.421875 c 0,-0.109375 -0.078125,-0.109375 -0.109375,-0.109375 -0.109375,0 -0.109375,0.046875 -0.140625,0.1875 -0.140625,0.5625 -0.328125,1.234375 -0.75,1.234375 -0.203125,0 -0.3125,-0.125 -0.3125,-0.453125 0,-0.21875 0.125,-0.6875 0.203125,-1.046875 L 4.578125,-2.6875 C 4.609375,-2.828125 4.703125,-3.203125 4.75,-3.359375 4.796875,-3.59375 4.890625,-3.96875 4.890625,-4.03125 c 0,-0.171875 -0.140625,-0.265625 -0.28125,-0.265625 -0.046875,0 -0.3125,0.015625 -0.390625,0.34375 -0.1875,0.734375 -0.625,2.484375 -0.75,3 -0.015625,0.046875 -0.40625,0.84375 -1.140625,0.84375 -0.515625,0 -0.609375,-0.453125 -0.609375,-0.8125 0,-0.5625 0.28125,-1.34375 0.53125,-2.03125 0.125,-0.3125 0.171875,-0.453125 0.171875,-0.640625 0,-0.4375 -0.3125,-0.8125 -0.8125,-0.8125 -0.953125,0 -1.3125,1.453125 -1.3125,1.53125 0,0.109375 0.09375,0.109375 0.109375,0.109375 0.109375,0 0.109375,-0.03125 0.15625,-0.1875 0.25,-0.859375 0.640625,-1.234375 1.015625,-1.234375 0.09375,0 0.25,0.015625 0.25,0.328125 0,0.234375 -0.109375,0.53125 -0.171875,0.671875 -0.375,1 -0.578125,1.609375 -0.578125,2.09375 0,0.953125 0.6875,1.203125 1.21875,1.203125 0.65625,0 1.015625,-0.453125 1.1875,-0.671875 z m 0,0"
             id="path66" />
        </g>
      </g>
      <g
         fill="#000000"
         fill-opacity="1"
         id="g4"
         transform="matrix(0.493889,0,0,0.493889,-45.5474,-38.3044)">
        <g
           id="use3"
           transform="translate(97.627998,83.457001)">
          <path
             d="m 2.328125,-4.4375 c 0,-0.1875 0,-0.1875 -0.203125,-0.1875 -0.453125,0.4375 -1.078125,0.4375 -1.359375,0.4375 v 0.25 c 0.15625,0 0.625,0 1,-0.1875 v 3.546875 c 0,0.234375 0,0.328125 -0.6875,0.328125 H 0.8125 V 0 c 0.125,0 0.984375,-0.03125 1.234375,-0.03125 0.21875,0 1.09375,0.03125 1.25,0.03125 V -0.25 H 3.03125 c -0.703125,0 -0.703125,-0.09375 -0.703125,-0.328125 z m 0,0"
             id="path67" />
        </g>
      </g>
    </g>
    <g
       inkscape:label=""
       transform="translate(101.71919,95.958097)"
       id="g72">
      <g
         fill="#000000"
         fill-opacity="1"
         id="g69"
         transform="matrix(0.493889,0,0,0.493889,-45.5474,-38.3044)">
        <g
           id="g68"
           transform="translate(91.925003,81.962997)">
          <path
             d="M 3.484375,-0.5625 C 3.59375,-0.15625 3.953125,0.109375 4.375,0.109375 4.71875,0.109375 4.953125,-0.125 5.109375,-0.4375 5.28125,-0.796875 5.40625,-1.40625 5.40625,-1.421875 c 0,-0.109375 -0.078125,-0.109375 -0.109375,-0.109375 -0.109375,0 -0.109375,0.046875 -0.140625,0.1875 -0.140625,0.5625 -0.328125,1.234375 -0.75,1.234375 -0.203125,0 -0.3125,-0.125 -0.3125,-0.453125 0,-0.21875 0.125,-0.6875 0.203125,-1.046875 L 4.578125,-2.6875 C 4.609375,-2.828125 4.703125,-3.203125 4.75,-3.359375 4.796875,-3.59375 4.890625,-3.96875 4.890625,-4.03125 c 0,-0.171875 -0.140625,-0.265625 -0.28125,-0.265625 -0.046875,0 -0.3125,0.015625 -0.390625,0.34375 -0.1875,0.734375 -0.625,2.484375 -0.75,3 -0.015625,0.046875 -0.40625,0.84375 -1.140625,0.84375 -0.515625,0 -0.609375,-0.453125 -0.609375,-0.8125 0,-0.5625 0.28125,-1.34375 0.53125,-2.03125 0.125,-0.3125 0.171875,-0.453125 0.171875,-0.640625 0,-0.4375 -0.3125,-0.8125 -0.8125,-0.8125 -0.953125,0 -1.3125,1.453125 -1.3125,1.53125 0,0.109375 0.09375,0.109375 0.109375,0.109375 0.109375,0 0.109375,-0.03125 0.15625,-0.1875 0.25,-0.859375 0.640625,-1.234375 1.015625,-1.234375 0.09375,0 0.25,0.015625 0.25,0.328125 0,0.234375 -0.109375,0.53125 -0.171875,0.671875 -0.375,1 -0.578125,1.609375 -0.578125,2.09375 0,0.953125 0.6875,1.203125 1.21875,1.203125 0.65625,0 1.015625,-0.453125 1.1875,-0.671875 z m 0,0"
             id="path68" />
        </g>
      </g>
      <g
         fill="#000000"
         fill-opacity="1"
         id="g71"
         transform="matrix(0.493889,0,0,0.493889,-45.5474,-38.3044)">
        <g
           id="g70"
           transform="translate(97.627998,83.457001)">
          <path
             d="M 3.515625,-1.265625 H 3.28125 c -0.015625,0.15625 -0.09375,0.5625 -0.1875,0.625 C 3.046875,-0.59375 2.515625,-0.59375 2.40625,-0.59375 H 1.125 c 0.734375,-0.640625 0.984375,-0.84375 1.390625,-1.171875 0.515625,-0.40625 1,-0.84375 1,-1.5 0,-0.84375 -0.734375,-1.359375 -1.625,-1.359375 -0.859375,0 -1.453125,0.609375 -1.453125,1.25 0,0.34375 0.296875,0.390625 0.375,0.390625 0.15625,0 0.359375,-0.125 0.359375,-0.375 0,-0.125 -0.046875,-0.375 -0.40625,-0.375 C 0.984375,-4.21875 1.453125,-4.375 1.78125,-4.375 c 0.703125,0 1.0625,0.546875 1.0625,1.109375 0,0.609375 -0.4375,1.078125 -0.65625,1.328125 L 0.515625,-0.265625 C 0.4375,-0.203125 0.4375,-0.1875 0.4375,0 h 2.875 z m 0,0"
             id="path69" />
        </g>
      </g>
    </g>
    <g
       inkscape:label=""
       transform="translate(158.50109,94.426726)"
       id="g77">
      <g
         fill="#000000"
         fill-opacity="1"
         id="g74"
         transform="matrix(0.493889,0,0,0.493889,-45.5474,-38.3044)">
        <g
           id="g73"
           transform="translate(91.925003,81.962997)">
          <path
             d="M 3.484375,-0.5625 C 3.59375,-0.15625 3.953125,0.109375 4.375,0.109375 4.71875,0.109375 4.953125,-0.125 5.109375,-0.4375 5.28125,-0.796875 5.40625,-1.40625 5.40625,-1.421875 c 0,-0.109375 -0.078125,-0.109375 -0.109375,-0.109375 -0.109375,0 -0.109375,0.046875 -0.140625,0.1875 -0.140625,0.5625 -0.328125,1.234375 -0.75,1.234375 -0.203125,0 -0.3125,-0.125 -0.3125,-0.453125 0,-0.21875 0.125,-0.6875 0.203125,-1.046875 L 4.578125,-2.6875 C 4.609375,-2.828125 4.703125,-3.203125 4.75,-3.359375 4.796875,-3.59375 4.890625,-3.96875 4.890625,-4.03125 c 0,-0.171875 -0.140625,-0.265625 -0.28125,-0.265625 -0.046875,0 -0.3125,0.015625 -0.390625,0.34375 -0.1875,0.734375 -0.625,2.484375 -0.75,3 -0.015625,0.046875 -0.40625,0.84375 -1.140625,0.84375 -0.515625,0 -0.609375,-0.453125 -0.609375,-0.8125 0,-0.5625 0.28125,-1.34375 0.53125,-2.03125 0.125,-0.3125 0.171875,-0.453125 0.171875,-0.640625 0,-0.4375 -0.3125,-0.8125 -0.8125,-0.8125 -0.953125,0 -1.3125,1.453125 -1.3125,1.53125 0,0.109375 0.09375,0.109375 0.109375,0.109375 0.109375,0 0.109375,-0.03125 0.15625,-0.1875 0.25,-0.859375 0.640625,-1.234375 1.015625,-1.234375 0.09375,0 0.25,0.015625 0.25,0.328125 0,0.234375 -0.109375,0.53125 -0.171875,0.671875 -0.375,1 -0.578125,1.609375 -0.578125,2.09375 0,0.953125 0.6875,1.203125 1.21875,1.203125 0.65625,0 1.015625,-0.453125 1.1875,-0.671875 z m 0,0"
             id="path72" />
        </g>
      </g>
      <g
         fill="#000000"
         fill-opacity="1"
         id="g76"
         transform="matrix(0.493889,0,0,0.493889,-45.5474,-38.3044)">
        <g
           id="g75"
           transform="translate(97.627998,83.457001)">
          <path
             d="m 1.90625,-2.328125 c 0.546875,0 0.9375,0.375 0.9375,1.125 0,0.859375 -0.515625,1.125 -0.90625,1.125 -0.28125,0 -0.90625,-0.078125 -1.1875,-0.5 0.328125,0 0.40625,-0.234375 0.40625,-0.390625 0,-0.21875 -0.171875,-0.375 -0.390625,-0.375 -0.1875,0 -0.390625,0.125 -0.390625,0.40625 0,0.65625 0.71875,1.078125 1.5625,1.078125 0.96875,0 1.640625,-0.65625 1.640625,-1.34375 0,-0.546875 -0.4375,-1.09375 -1.203125,-1.25 0.71875,-0.265625 0.984375,-0.78125 0.984375,-1.21875 0,-0.546875 -0.625,-0.953125 -1.40625,-0.953125 -0.765625,0 -1.359375,0.375 -1.359375,0.9375 0,0.234375 0.15625,0.359375 0.359375,0.359375 0.21875,0 0.359375,-0.15625 0.359375,-0.34375 0,-0.203125 -0.140625,-0.359375 -0.359375,-0.375 0.25,-0.296875 0.71875,-0.375 0.984375,-0.375 0.3125,0 0.75,0.15625 0.75,0.75 0,0.296875 -0.09375,0.625 -0.28125,0.828125 -0.21875,0.265625 -0.421875,0.28125 -0.765625,0.3125 -0.171875,0.015625 -0.1875,0.015625 -0.21875,0.015625 -0.015625,0 -0.078125,0.015625 -0.078125,0.09375 0,0.09375 0.0625,0.09375 0.1875,0.09375 z m 0,0"
             id="path74" />
        </g>
      </g>
    </g>
    <g
       inkscape:label=""
       transform="translate(54.216989,62.317256)"
       id="g82">
      <g
         fill="#000000"
         fill-opacity="1"
         id="g79"
         transform="matrix(0.493889,0,0,0.493889,-45.5474,-38.3044)">
        <g
           id="g78"
           transform="translate(91.925003,81.962997)">
          <path
             d="m 4.671875,-3.703125 c 0,-0.546875 -0.265625,-0.703125 -0.4375,-0.703125 -0.25,0 -0.5,0.265625 -0.5,0.484375 0,0.125 0.046875,0.1875 0.15625,0.296875 0.21875,0.203125 0.34375,0.453125 0.34375,0.8125 0,0.421875 -0.609375,2.703125 -1.765625,2.703125 -0.515625,0 -0.75,-0.34375 -0.75,-0.875 0,-0.546875 0.28125,-1.28125 0.578125,-2.109375 0.078125,-0.171875 0.125,-0.3125 0.125,-0.5 0,-0.4375 -0.3125,-0.8125 -0.8125,-0.8125 -0.9375,0 -1.3125,1.453125 -1.3125,1.53125 0,0.109375 0.09375,0.109375 0.109375,0.109375 0.109375,0 0.109375,-0.03125 0.15625,-0.1875 0.296875,-1 0.71875,-1.234375 1.015625,-1.234375 0.078125,0 0.25,0 0.25,0.3125 0,0.25 -0.109375,0.53125 -0.171875,0.703125 -0.4375,1.15625 -0.5625,1.609375 -0.5625,2.046875 0,1.078125 0.875,1.234375 1.328125,1.234375 1.671875,0 2.25,-3.296875 2.25,-3.8125 z m 0,0"
             id="path77" />
        </g>
      </g>
      <g
         fill="#000000"
         fill-opacity="1"
         id="g81"
         transform="matrix(0.493889,0,0,0.493889,-45.5474,-38.3044)">
        <g
           id="g80"
           transform="translate(96.753998,83.457001)">
          <path
             d="m 2.328125,-4.4375 c 0,-0.1875 0,-0.1875 -0.203125,-0.1875 -0.453125,0.4375 -1.078125,0.4375 -1.359375,0.4375 v 0.25 c 0.15625,0 0.625,0 1,-0.1875 v 3.546875 c 0,0.234375 0,0.328125 -0.6875,0.328125 H 0.8125 V 0 c 0.125,0 0.984375,-0.03125 1.234375,-0.03125 0.21875,0 1.09375,0.03125 1.25,0.03125 V -0.25 H 3.03125 c -0.703125,0 -0.703125,-0.09375 -0.703125,-0.328125 z m 0,0"
             id="path79" />
        </g>
      </g>
    </g>
    <g
       inkscape:label=""
       transform="translate(118.14133,80.556347)"
       id="g88">
      <g
         fill="#000000"
         fill-opacity="1"
         id="g84"
         transform="matrix(0.493889,0,0,0.493889,-45.5474,-38.3044)">
        <g
           id="g83"
           transform="translate(91.925003,81.962997)">
          <path
             d="m 4.671875,-3.703125 c 0,-0.546875 -0.265625,-0.703125 -0.4375,-0.703125 -0.25,0 -0.5,0.265625 -0.5,0.484375 0,0.125 0.046875,0.1875 0.15625,0.296875 0.21875,0.203125 0.34375,0.453125 0.34375,0.8125 0,0.421875 -0.609375,2.703125 -1.765625,2.703125 -0.515625,0 -0.75,-0.34375 -0.75,-0.875 0,-0.546875 0.28125,-1.28125 0.578125,-2.109375 0.078125,-0.171875 0.125,-0.3125 0.125,-0.5 0,-0.4375 -0.3125,-0.8125 -0.8125,-0.8125 -0.9375,0 -1.3125,1.453125 -1.3125,1.53125 0,0.109375 0.09375,0.109375 0.109375,0.109375 0.109375,0 0.109375,-0.03125 0.15625,-0.1875 0.296875,-1 0.71875,-1.234375 1.015625,-1.234375 0.078125,0 0.25,0 0.25,0.3125 0,0.25 -0.109375,0.53125 -0.171875,0.703125 -0.4375,1.15625 -0.5625,1.609375 -0.5625,2.046875 0,1.078125 0.875,1.234375 1.328125,1.234375 1.671875,0 2.25,-3.296875 2.25,-3.8125 z m 0,0"
             id="path83" />
        </g>
      </g>
      <g
         fill="#000000"
         fill-opacity="1"
         id="g87"
         transform="matrix(0.493889,0,0,0.493889,-45.5474,-38.3044)">
        <g
           id="g86"
           transform="translate(96.753998,83.457001)">
          <path
             d="M 3.515625,-1.265625 H 3.28125 c -0.015625,0.15625 -0.09375,0.5625 -0.1875,0.625 C 3.046875,-0.59375 2.515625,-0.59375 2.40625,-0.59375 H 1.125 c 0.734375,-0.640625 0.984375,-0.84375 1.390625,-1.171875 0.515625,-0.40625 1,-0.84375 1,-1.5 0,-0.84375 -0.734375,-1.359375 -1.625,-1.359375 -0.859375,0 -1.453125,0.609375 -1.453125,1.25 0,0.34375 0.296875,0.390625 0.375,0.390625 0.15625,0 0.359375,-0.125 0.359375,-0.375 0,-0.125 -0.046875,-0.375 -0.40625,-0.375 C 0.984375,-4.21875 1.453125,-4.375 1.78125,-4.375 c 0.703125,0 1.0625,0.546875 1.0625,1.109375 0,0.609375 -0.4375,1.078125 -0.65625,1.328125 L 0.515625,-0.265625 C 0.4375,-0.203125 0.4375,-0.1875 0.4375,0 h 2.875 z m 0,0"
             id="path86" />
        </g>
      </g>
    </g>
    <g
       inkscape:label=""
       transform="translate(102.49494,71.210467)"
       id="g89">
      <g
         fill="#000000"
         fill-opacity="1"
         id="g2"
         transform="matrix(0.493889,0,0,0.493889,-45.6091,-38.3044)">
        <g
           id="use1"
           transform="translate(91.925003,81.962997)">
          <path
             d="m 1.328125,-0.828125 c 0.53125,-0.578125 0.828125,-0.828125 1.1875,-1.140625 0,0 0.609375,-0.53125 0.96875,-0.890625 C 4.4375,-3.78125 4.65625,-4.265625 4.65625,-4.3125 c 0,-0.09375 -0.09375,-0.09375 -0.109375,-0.09375 -0.078125,0 -0.09375,0.015625 -0.15625,0.109375 -0.296875,0.484375 -0.5,0.640625 -0.734375,0.640625 -0.25,0 -0.359375,-0.15625 -0.515625,-0.328125 -0.1875,-0.21875 -0.359375,-0.421875 -0.6875,-0.421875 -0.75,0 -1.203125,0.921875 -1.203125,1.140625 0,0.046875 0.03125,0.109375 0.109375,0.109375 0.09375,0 0.109375,-0.046875 0.140625,-0.109375 0.1875,-0.46875 0.765625,-0.46875 0.84375,-0.46875 0.203125,0 0.390625,0.0625 0.625,0.140625 0.40625,0.15625 0.515625,0.15625 0.765625,0.15625 -0.359375,0.421875 -1.1875,1.140625 -1.375,1.296875 l -0.90625,0.84375 C 0.78125,-0.625 0.421875,-0.0625 0.421875,0.015625 c 0,0.09375 0.109375,0.09375 0.125,0.09375 0.078125,0 0.09375,-0.015625 0.15625,-0.125 0.234375,-0.359375 0.53125,-0.625 0.859375,-0.625 0.21875,0 0.328125,0.09375 0.578125,0.375 0.15625,0.21875 0.34375,0.375 0.625,0.375 1,0 1.578125,-1.265625 1.578125,-1.53125 0,-0.046875 -0.046875,-0.109375 -0.125,-0.109375 -0.09375,0 -0.109375,0.0625 -0.140625,0.140625 C 3.84375,-0.75 3.203125,-0.5625 2.875,-0.5625 c -0.1875,0 -0.375,-0.0625 -0.578125,-0.125 -0.34375,-0.125 -0.5,-0.171875 -0.703125,-0.171875 -0.015625,0 -0.171875,0 -0.265625,0.03125 z m 0,0"
             id="path88" />
        </g>
      </g>
    </g>
  </g>
</svg>
