<?xml version="1.0" encoding="UTF-8" standalone="no"?>
<!-- Created with Inkscape (http://www.inkscape.org/) -->

<svg
   width="111.02071mm"
   height="51.620209mm"
   viewBox="0 0 111.02071 51.620209"
   version="1.1"
   id="svg1"
   inkscape:version="1.3.2 (091e20e, 2023-11-25)"
   sodipodi:docname="chapter_2_example_1.svg"
   inkscape:export-filename="chapter_2_example_1.pdf"
   inkscape:export-xdpi="96"
   inkscape:export-ydpi="96"
   xmlns:inkscape="http://www.inkscape.org/namespaces/inkscape"
   xmlns:sodipodi="http://sodipodi.sourceforge.net/DTD/sodipodi-0.dtd"
   xmlns="http://www.w3.org/2000/svg"
   xmlns:svg="http://www.w3.org/2000/svg">
  <sodipodi:namedview
     id="namedview1"
     pagecolor="#ffffff"
     bordercolor="#000000"
     borderopacity="0.25"
     inkscape:showpageshadow="2"
     inkscape:pageopacity="0.0"
     inkscape:pagecheckerboard="0"
     inkscape:deskcolor="#d1d1d1"
     inkscape:document-units="mm"
     inkscape:zoom="2.12"
     inkscape:cx="215.09434"
     inkscape:cy="187.26415"
     inkscape:window-width="1920"
     inkscape:window-height="1136"
     inkscape:window-x="0"
     inkscape:window-y="27"
     inkscape:window-maximized="1"
     inkscape:current-layer="layer1" />
  <defs
     id="defs1" />
  <g
     inkscape:label="Layer 1"
     inkscape:groupmode="layer"
     id="layer1"
     transform="translate(-48.0427, -75)">
    <path
       style="fill:#ff0000;fill-rule:evenodd;stroke:#000000;stroke-width:0.264999;stroke-opacity:1;paint-order:stroke fill markers"
       d="M 103.33948,79.977785 61.146365,122.1709"
       id="path1" />
    <path
       style="fill:none;fill-opacity:1;fill-rule:evenodd;stroke:#000000;stroke-width:0.5;stroke-opacity:1;paint-order:stroke fill markers;stroke-dasharray:none"
       d="M 103.23762,80.093691 145.43074,122.2868"
       id="path1-6" />
    <path
       style="fill:#ff0000;fill-rule:evenodd;stroke:#000000;stroke-width:0.264999;stroke-opacity:1;paint-order:stroke fill markers"
       d="M 61.233241,122.15457 H 145.31106"
       id="path2" />
    <path
       style="fill:none;fill-rule:evenodd;stroke:#ff0000;stroke-width:0.264999;paint-order:stroke fill markers"
       d="M 98.515523,76.03391 48.5585,125.99093 H 158.62116 L 108.45812,75.827881"
       id="path3" />
    <path
       id="path39"
       d="m 145.10469,122.86404 c 0.51411,-0.20148 0.7675,-0.78146 0.56603,-1.29557 -0.20148,-0.5141 -0.78146,-0.76749 -1.29557,-0.56601 -0.51411,0.20147 -0.7675,0.78146 -0.56602,1.29557 0.20147,0.5141 0.78145,0.76749 1.29556,0.56601"
       style="fill:#000000;fill-opacity:1;fill-rule:evenodd;stroke:none;stroke-width:0.33324" />
    <path
       id="path39-5"
       d="m 103.8067,81.342838 c 0.51411,-0.20148 0.7675,-0.78146 0.56603,-1.29557 -0.20148,-0.5141 -0.78146,-0.76749 -1.29557,-0.56601 -0.51411,0.20147 -0.7675,0.78146 -0.56602,1.29557 0.20147,0.5141 0.78145,0.76749 1.29556,0.56601"
       style="fill:#000000;fill-opacity:1;fill-rule:evenodd;stroke:none;stroke-width:0.33324" />
    <path
       id="path39-5-1"
       d="m 98.927909,76.930787 c 0.51411,-0.20148 0.7675,-0.78146 0.56603,-1.29557 -0.20148,-0.5141 -0.78146,-0.76749 -1.29557,-0.56601 -0.51411,0.20147 -0.7675,0.78146 -0.56602,1.29557 0.20147,0.5141 0.78145,0.76749 1.29556,0.56601"
       style="fill:#ff0000;fill-opacity:1;fill-rule:evenodd;stroke:none;stroke-width:0.33324" />
    <path
       id="path39-5-2"
       d="m 49.407455,126.49264 c 0.51411,-0.20148 0.7675,-0.78146 0.56603,-1.29557 -0.20148,-0.5141 -0.78146,-0.76749 -1.29557,-0.56601 -0.51411,0.20147 -0.7675,0.78146 -0.56602,1.29557 0.20147,0.5141 0.78145,0.76749 1.29556,0.56601"
       style="fill:#ff0000;fill-opacity:1;fill-rule:evenodd;stroke:none;stroke-width:0.33324" />
    <path
       id="path39-5-5"
       d="m 108.86617,76.930787 c 0.51411,-0.20148 0.7675,-0.78146 0.56603,-1.29557 -0.20148,-0.5141 -0.78146,-0.76749 -1.29557,-0.56601 -0.51411,0.20147 -0.7675,0.78146 -0.56602,1.29557 0.20147,0.5141 0.78145,0.76749 1.29556,0.56601"
       style="fill:#ff0000;fill-opacity:1;fill-rule:evenodd;stroke:none;stroke-width:0.33324" />
    <path
       id="path39-5-5-6"
       d="m 158.42817,126.551 c 0.51411,-0.20148 0.7675,-0.78146 0.56603,-1.29557 -0.20148,-0.5141 -0.78146,-0.76749 -1.29557,-0.56601 -0.51411,0.20147 -0.7675,0.78146 -0.56602,1.29557 0.20147,0.5141 0.78145,0.76749 1.29556,0.56601"
       style="fill:#ff0000;fill-opacity:1;fill-rule:evenodd;stroke:none;stroke-width:0.33324" />
    <path
       id="path39-4"
       d="m 61.888313,122.87205 c 0.51411,-0.20148 0.7675,-0.78146 0.56603,-1.29557 -0.20148,-0.5141 -0.78146,-0.76749 -1.29557,-0.56601 -0.51411,0.20147 -0.7675,0.78146 -0.56602,1.29557 0.20147,0.5141 0.78145,0.76749 1.29556,0.56601"
       style="fill:#000000;fill-opacity:1;fill-rule:evenodd;stroke:none;stroke-width:0.33324" />
    <path
       style="fill:none;fill-opacity:1;fill-rule:evenodd;stroke:#ff0000;stroke-width:0.5;stroke-dasharray:none;stroke-opacity:1;paint-order:stroke fill markers"
       d="m 98.432948,76.028401 -49.596947,49.831769 96.064869,0.23571"
       id="path4" />
    <path
       style="fill:none;fill-opacity:1;fill-rule:evenodd;stroke:#000000;stroke-width:0.265;stroke-dasharray:0.26499999, 0.26499999;stroke-opacity:1;paint-order:stroke fill markers;stroke-dashoffset:0"
       d="m 145.0138,121.93984 12.84735,3.71053"
       id="path5" />
    <g
       inkscape:label=""
       transform="translate(78.822253,96.878924)"
       id="g6">
      <g
         fill="#000000"
         fill-opacity="1"
         id="g2"
         transform="matrix(0.423333,0,0,0.423333,-39.0274,-32.7861)">
        <g
           id="use1"
           transform="translate(91.925003,81.962997)">
          <path
             d="M 1.40625,-2.265625 C 1.734375,-2.125 2.03125,-2.125 2.265625,-2.125 c 0.25,0 0.8125,0 0.8125,-0.3125 0,-0.234375 -0.359375,-0.265625 -0.734375,-0.265625 -0.203125,0 -0.5625,0.015625 -0.921875,0.1875 C 1.1875,-2.625 1.015625,-2.828125 1.015625,-3.09375 c 0,-0.609375 0.984375,-0.96875 1.875,-0.96875 0.15625,0 0.515625,0 0.921875,0.28125 0.109375,0.078125 0.125,0.109375 0.1875,0.109375 0.140625,0 0.28125,-0.140625 0.28125,-0.28125 0,-0.1875 -0.609375,-0.5625 -1.296875,-0.5625 -1.140625,0 -2.21875,0.671875 -2.21875,1.421875 0,0.4375 0.359375,0.6875 0.40625,0.71875 -0.59375,0.328125 -0.90625,0.875 -0.90625,1.34375 0,0.640625 0.5625,1.25 1.625,1.25 1.3125,0 1.875,-0.875 1.875,-1.03125 0,-0.0625 -0.0625,-0.09375 -0.109375,-0.09375 -0.0625,0 -0.09375,0.03125 -0.109375,0.0625 -0.140625,0.234375 -0.375,0.609375 -1.578125,0.609375 -0.609375,0 -1.453125,-0.15625 -1.453125,-0.859375 0,-0.34375 0.28125,-0.875 0.890625,-1.171875 z m 0.328125,-0.125 c 0.234375,-0.078125 0.4375,-0.09375 0.609375,-0.09375 0.25,0 0.28125,0.015625 0.46875,0.0625 -0.15625,0.0625 -0.171875,0.078125 -0.546875,0.078125 -0.21875,0 -0.34375,0 -0.53125,-0.046875 z m 0,0"
             id="path6" />
        </g>
      </g>
    </g>
    <path
       style="fill:none;fill-opacity:1;fill-rule:evenodd;stroke:#000000;stroke-width:0.265;stroke-dasharray:0.26499999,0.26499999;stroke-dashoffset:0;stroke-opacity:1;paint-order:stroke fill markers"
       d="m 103.43554,80.55869 -54.489733,44.8669"
       id="path7" />
    <g
       inkscape:label=""
       transform="translate(149.67121,120.0919)"
       id="g9">
      <g
         fill="#000000"
         fill-opacity="1"
         id="g3"
         transform="matrix(0.423333,0,0,0.423333,-39.0274,-31.8799)">
        <g
           id="use2"
           transform="translate(92.587997,81.962997)">
          <path
             d="M 4.140625,-6.515625 3.984375,-6.65625 c 0,0 -0.375,0.46875 -0.8125,0.46875 -0.234375,0 -0.484375,-0.140625 -0.65625,-0.25 C 2.25,-6.59375 2.078125,-6.65625 1.90625,-6.65625 c -0.375,0 -0.578125,0.21875 -1.078125,0.78125 l 0.15625,0.140625 c 0,0 0.375,-0.46875 0.8125,-0.46875 0.234375,0 0.484375,0.140625 0.65625,0.234375 0.265625,0.171875 0.453125,0.234375 0.625,0.234375 0.375,0 0.5625,-0.21875 1.0625,-0.78125 z m 0,0"
             id="path8" />
        </g>
      </g>
      <g
         fill="#000000"
         fill-opacity="1"
         id="g4"
         transform="matrix(0.423333,0,0,0.423333,-39.0274,-31.8799)">
        <g
           id="use3"
           transform="translate(91.925003,81.962997)">
          <path
             d="M 1.40625,-2.265625 C 1.734375,-2.125 2.03125,-2.125 2.265625,-2.125 c 0.25,0 0.8125,0 0.8125,-0.3125 0,-0.234375 -0.359375,-0.265625 -0.734375,-0.265625 -0.203125,0 -0.5625,0.015625 -0.921875,0.1875 C 1.1875,-2.625 1.015625,-2.828125 1.015625,-3.09375 c 0,-0.609375 0.984375,-0.96875 1.875,-0.96875 0.15625,0 0.515625,0 0.921875,0.28125 0.109375,0.078125 0.125,0.109375 0.1875,0.109375 0.140625,0 0.28125,-0.140625 0.28125,-0.28125 0,-0.1875 -0.609375,-0.5625 -1.296875,-0.5625 -1.140625,0 -2.21875,0.671875 -2.21875,1.421875 0,0.4375 0.359375,0.6875 0.40625,0.71875 -0.59375,0.328125 -0.90625,0.875 -0.90625,1.34375 0,0.640625 0.5625,1.25 1.625,1.25 1.3125,0 1.875,-0.875 1.875,-1.03125 0,-0.0625 -0.0625,-0.09375 -0.109375,-0.09375 -0.0625,0 -0.09375,0.03125 -0.109375,0.0625 -0.140625,0.234375 -0.375,0.609375 -1.578125,0.609375 -0.609375,0 -1.453125,-0.15625 -1.453125,-0.859375 0,-0.34375 0.28125,-0.875 0.890625,-1.171875 z m 0.328125,-0.125 c 0.234375,-0.078125 0.4375,-0.09375 0.609375,-0.09375 0.25,0 0.28125,0.015625 0.46875,0.0625 -0.15625,0.0625 -0.171875,0.078125 -0.546875,0.078125 -0.21875,0 -0.34375,0 -0.53125,-0.046875 z m 0,0"
             id="path9" />
        </g>
      </g>
    </g>
  </g>
</svg>
